<svg width="16" height="23" viewBox="0 0 16 23" fill="none" xmlns="http://www.w3.org/2000/svg">
<path d="M7.50768 10.8889C6.79655 10.8889 6.11455 10.6061 5.61171 10.1029C5.10886 9.59967 4.82637 8.91713 4.82637 8.20544C4.82637 7.49376 5.10886 6.81122 5.61171 6.30799C6.11455 5.80475 6.79655 5.52203 7.50768 5.52203C8.21881 5.52203 8.90082 5.80475 9.40366 6.30799C9.9065 6.81122 10.189 7.49376 10.189 8.20544C10.189 8.55783 10.1196 8.90678 9.9849 9.23234C9.85015 9.55791 9.65264 9.85372 9.40366 10.1029C9.15468 10.3521 8.85909 10.5497 8.53378 10.6846C8.20847 10.8194 7.8598 10.8889 7.50768 10.8889ZM7.50768 0.691895C5.51652 0.691895 3.60691 1.4835 2.19895 2.89256C0.790986 4.30163 0 6.21273 0 8.20544C0 13.8406 7.50768 22.1592 7.50768 22.1592C7.50768 22.1592 15.0154 13.8406 15.0154 8.20544C15.0154 6.21273 14.2244 4.30163 12.8164 2.89256C11.4085 1.4835 9.49885 0.691895 7.50768 0.691895Z" fill="white"/>
</svg>
