<svg width="30" height="28" viewBox="0 0 30 28" fill="none" xmlns="http://www.w3.org/2000/svg">
<g clip-path="url(#clip0_114_1332)">
<path d="M1.81853 26.7467V1.48864H7.89913V0.617676H0.883057V27.6177H17.8777V26.7467H1.81853Z" fill="#033020"/>
<path d="M9.45837 0.617676V1.48864H28.9476V26.7467H19.4367V27.6177H29.883V0.617676H9.45837Z" fill="#033020"/>
<path d="M2.75403 2.35962V25.8757H14.6035V2.35962H2.75403ZM7.02065 25.0048C6.80893 24.2263 6.247 22.4152 5.42344 21.6485L4.762 22.2644C5.31492 22.7792 5.79858 24.1341 6.05278 25.0048H3.6895V3.23058H13.4506C12.2843 5.98938 7.32765 17.5178 5.07386 19.6162L4.64645 20.0149L5.16839 20.3C5.20181 20.3183 8.36343 22.0791 8.65694 25.0048H7.02065V25.0048ZM13.668 25.0048H12.7325V18.4726H11.797V25.0048H9.59616C9.37283 22.2894 7.11094 20.5006 6.10863 19.8354C8.27768 17.2784 11.9648 9.03358 13.668 5.08251V25.0048Z" fill="#033020"/>
<path d="M16.1626 2.35962V25.8757H28.012V2.35962H16.1626ZM18.9691 25.0048V18.4726H18.0336V25.0048H17.0981V5.08251C18.8013 9.03358 22.4885 17.2784 24.6575 19.8354C23.6552 20.5005 21.3933 22.2894 21.17 25.0048H18.9691ZM27.0766 25.0048H25.025C25.2789 24.1344 25.7622 22.7801 26.316 22.2644L25.6545 21.6485C24.831 22.4153 24.2691 24.2263 24.0573 25.0048H22.1092C22.4027 22.0791 25.5643 20.3184 25.5972 20.3003L26.1213 20.0157L25.6923 19.6163C23.4388 17.5181 18.4819 5.98948 17.3156 3.23063H27.0766V25.0048Z" fill="#033020"/>
<path d="M4.625 4.10156V8.60154H5.56048V4.97252H7.2755V4.10156H4.625Z" fill="#033020"/>
<path d="M5.7164 9.61768H4.46912V10.4886H5.7164V9.61768Z" fill="#033020"/>
<path d="M23.4906 4.10156V4.97252H25.2056V8.60154H26.1411V4.10156H23.4906Z" fill="#033020"/>
<path d="M26.297 9.61768H25.0497V10.4886H26.297V9.61768Z" fill="#033020"/>
<path d="M12.7325 16.15H11.797V17.6016H12.7325V16.15Z" fill="#033020"/>
<path d="M18.969 16.15H18.0336V17.6016H18.969V16.15Z" fill="#033020"/>
</g>
<defs>
<clipPath id="clip0_114_1332">
<rect width="29" height="27" fill="white" transform="translate(0.883057 0.617676)"/>
</clipPath>
</defs>
</svg>
