<svg width="31" height="24" viewBox="0 0 31 24" fill="none" xmlns="http://www.w3.org/2000/svg">
<path d="M10.5012 23.6182H1.00122C0.868612 23.6182 0.741435 23.5655 0.647667 23.4717C0.553899 23.3779 0.501221 23.2508 0.501221 23.1182V17.6182C0.501221 17.4856 0.553899 17.3584 0.647667 17.2646C0.741435 17.1708 0.868612 17.1182 1.00122 17.1182H10.5012C10.6338 17.1182 10.761 17.1708 10.8548 17.2646C10.9485 17.3584 11.0012 17.4856 11.0012 17.6182V23.1182C11.0012 23.2508 10.9485 23.3779 10.8548 23.4717C10.761 23.5655 10.6338 23.6182 10.5012 23.6182ZM1.50122 22.6182H10.0012V18.1182H1.50122V22.6182Z" fill="#033020"/>
<path d="M20.0012 23.6182H10.5012C10.3686 23.6182 10.2414 23.5655 10.1477 23.4717C10.0539 23.3779 10.0012 23.2508 10.0012 23.1182V17.6182C10.0012 17.4856 10.0539 17.3584 10.1477 17.2646C10.2414 17.1708 10.3686 17.1182 10.5012 17.1182H20.0012C20.1338 17.1182 20.261 17.1708 20.3548 17.2646C20.4485 17.3584 20.5012 17.4856 20.5012 17.6182V23.1182C20.5012 23.2508 20.4485 23.3779 20.3548 23.4717C20.261 23.5655 20.1338 23.6182 20.0012 23.6182ZM11.0012 22.6182H19.5012V18.1182H11.0012V22.6182Z" fill="#033020"/>
<path d="M30.0012 23.6182H20.0012C19.8686 23.6182 19.7414 23.5655 19.6477 23.4717C19.5539 23.3779 19.5012 23.2508 19.5012 23.1182V17.6182C19.5012 17.4856 19.5539 17.3584 19.6477 17.2646C19.7414 17.1708 19.8686 17.1182 20.0012 17.1182H30.0012C30.1338 17.1182 30.261 17.1708 30.3548 17.2646C30.4485 17.3584 30.5012 17.4856 30.5012 17.6182V23.1182C30.5012 23.2508 30.4485 23.3779 30.3548 23.4717C30.261 23.5655 30.1338 23.6182 30.0012 23.6182ZM20.5012 22.6182H29.5012V18.1182H20.5012V22.6182Z" fill="#033020"/>
<path d="M30.0012 12.6182H20.5012C20.3686 12.6182 20.2414 12.5655 20.1477 12.4717C20.0539 12.3779 20.0012 12.2508 20.0012 12.1182V6.61816C20.0012 6.48556 20.0539 6.35838 20.1477 6.26461C20.2414 6.17084 20.3686 6.11816 20.5012 6.11816H30.0012C30.1338 6.11816 30.261 6.17084 30.3548 6.26461C30.4485 6.35838 30.5012 6.48556 30.5012 6.61816V12.1182C30.5012 12.2508 30.4485 12.3779 30.3548 12.4717C30.261 12.5655 30.1338 12.6182 30.0012 12.6182ZM21.0012 11.6182H29.5012V7.11816H21.0012V11.6182Z" fill="#033020"/>
<path d="M20.5012 12.6182H11.0012C10.8686 12.6182 10.7414 12.5655 10.6477 12.4717C10.5539 12.3779 10.5012 12.2508 10.5012 12.1182V6.61816C10.5012 6.48556 10.5539 6.35838 10.6477 6.26461C10.7414 6.17084 10.8686 6.11816 11.0012 6.11816H20.5012C20.6338 6.11816 20.761 6.17084 20.8548 6.26461C20.9485 6.35838 21.0012 6.48556 21.0012 6.61816V12.1182C21.0012 12.2508 20.9485 12.3779 20.8548 12.4717C20.761 12.5655 20.6338 12.6182 20.5012 12.6182ZM11.5012 11.6182H20.0012V7.11816H11.5012V11.6182Z" fill="#033020"/>
<path d="M25.0012 18.1182H15.5012C15.3686 18.1182 15.2414 18.0655 15.1477 17.9717C15.0539 17.8779 15.0012 17.7508 15.0012 17.6182V12.1182C15.0012 11.9856 15.0539 11.8584 15.1477 11.7646C15.2414 11.6708 15.3686 11.6182 15.5012 11.6182H25.0012C25.1338 11.6182 25.261 11.6708 25.3548 11.7646C25.4485 11.8584 25.5012 11.9856 25.5012 12.1182V17.6182C25.5012 17.7508 25.4485 17.8779 25.3548 17.9717C25.261 18.0655 25.1338 18.1182 25.0012 18.1182ZM16.0012 17.1182H24.5012V12.6182H16.0012V17.1182Z" fill="#033020"/>
<path d="M15.5012 18.1182H6.00122C5.86861 18.1182 5.74144 18.0655 5.64767 17.9717C5.5539 17.8779 5.50122 17.7508 5.50122 17.6182V12.1182C5.50122 11.9856 5.5539 11.8584 5.64767 11.7646C5.74144 11.6708 5.86861 11.6182 6.00122 11.6182H15.5012C15.6338 11.6182 15.761 11.6708 15.8548 11.7646C15.9485 11.8584 16.0012 11.9856 16.0012 12.1182V17.6182C16.0012 17.7508 15.9485 17.8779 15.8548 17.9717C15.761 18.0655 15.6338 18.1182 15.5012 18.1182ZM6.50122 17.1182H15.0012V12.6182H6.50122V17.1182Z" fill="#033020"/>
<path d="M25.0012 7.11816H15.5012C15.3686 7.11816 15.2414 7.06549 15.1477 6.97172C15.0539 6.87795 15.0012 6.75077 15.0012 6.61816V1.11816C15.0012 0.985556 15.0539 0.858379 15.1477 0.764611C15.2414 0.670843 15.3686 0.618164 15.5012 0.618164H25.0012C25.1338 0.618164 25.261 0.670843 25.3548 0.764611C25.4485 0.858379 25.5012 0.985556 25.5012 1.11816V6.61816C25.5012 6.75077 25.4485 6.87795 25.3548 6.97172C25.261 7.06549 25.1338 7.11816 25.0012 7.11816ZM16.0012 6.11816H24.5012V1.61816H16.0012V6.11816Z" fill="#033020"/>
<path d="M15.5012 7.11816H6.00122C5.86861 7.11816 5.74144 7.06549 5.64767 6.97172C5.5539 6.87795 5.50122 6.75077 5.50122 6.61816V1.11816C5.50122 0.985556 5.5539 0.858379 5.64767 0.764611C5.74144 0.670843 5.86861 0.618164 6.00122 0.618164H15.5012C15.6338 0.618164 15.761 0.670843 15.8548 0.764611C15.9485 0.858379 16.0012 0.985556 16.0012 1.11816V6.61816C16.0012 6.75077 15.9485 6.87795 15.8548 6.97172C15.761 7.06549 15.6338 7.11816 15.5012 7.11816ZM6.50122 6.11816H15.0012V1.61816H6.50122V6.11816Z" fill="#033020"/>
<path d="M11.0012 12.6182H1.00122C0.868612 12.6182 0.741435 12.5655 0.647667 12.4717C0.553899 12.3779 0.501221 12.2508 0.501221 12.1182V6.61816C0.501221 6.48556 0.553899 6.35838 0.647667 6.26461C0.741435 6.17084 0.868612 6.11816 1.00122 6.11816H11.0012C11.1338 6.11816 11.261 6.17084 11.3548 6.26461C11.4485 6.35838 11.5012 6.48556 11.5012 6.61816V12.1182C11.5012 12.2508 11.4485 12.3779 11.3548 12.4717C11.261 12.5655 11.1338 12.6182 11.0012 12.6182ZM1.50122 11.6182H10.5012V7.11816H1.50122V11.6182Z" fill="#033020"/>
</svg>
