<svg width="24" height="23" viewBox="0 0 24 23" fill="none" xmlns="http://www.w3.org/2000/svg">
<path d="M10.1428 11.0611V0.617676H22.8241V22.2505H13.8726" stroke="#033020" stroke-linecap="round" stroke-linejoin="round"/>
<path d="M1.19165 11.0611H13.873V22.2505H1.19165V11.0611Z" stroke="#033020" stroke-linecap="round" stroke-linejoin="round"/>
<path d="M19.094 5.09321H21.3319V2.10938H19.094" stroke="#033020" stroke-linecap="round" stroke-linejoin="round"/>
<path d="M15.3655 5.09321H17.6034V2.10938H15.3655" stroke="#033020" stroke-linecap="round" stroke-linejoin="round"/>
<path d="M11.6351 5.09346H13.873V2.10962H11.6351" stroke="#033020" stroke-linecap="round" stroke-linejoin="round"/>
<path d="M19.094 9.56929H21.3319V6.58545H19.094" stroke="#033020" stroke-linecap="round" stroke-linejoin="round"/>
<path d="M15.3655 9.56929H17.6034V6.58545H15.3655" stroke="#033020" stroke-linecap="round" stroke-linejoin="round"/>
<path d="M19.094 14.0449H21.3319V11.061H19.094" stroke="#033020" stroke-linecap="round" stroke-linejoin="round"/>
<path d="M15.3655 14.0449H17.6034V11.061H15.3655" stroke="#033020" stroke-linecap="round" stroke-linejoin="round"/>
<path d="M10.1428 15.91H12.3807V12.5532H10.1428" stroke="#033020" stroke-linecap="round" stroke-linejoin="round"/>
<path d="M6.41431 15.91H8.65218V12.5532H6.41431" stroke="#033020" stroke-linecap="round" stroke-linejoin="round"/>
<path d="M2.68384 15.91H4.92172V12.5532H2.68384" stroke="#033020" stroke-linecap="round" stroke-linejoin="round"/>
<path d="M19.094 18.5205H21.3319V15.5366H19.094" stroke="#033020" stroke-linecap="round" stroke-linejoin="round"/>
<path d="M15.3655 18.5205H17.6034V15.5366H15.3655" stroke="#033020" stroke-linecap="round" stroke-linejoin="round"/>
<path d="M11.6351 9.56916H13.873V6.58533H11.6351" stroke="#033020" stroke-linecap="round" stroke-linejoin="round"/>
<path d="M9.39673 22.2505H5.66693V17.7747H9.39673V22.2505Z" stroke="#033020" stroke-linecap="round" stroke-linejoin="round"/>
</svg>
