<svg width="18" height="17" viewBox="0 0 18 17" fill="none" xmlns="http://www.w3.org/2000/svg">
<path d="M17.2478 1.69246V12.8924C17.2478 13.1209 17.1517 13.34 16.9806 13.5016C16.8095 13.6631 16.5775 13.7539 16.3356 13.7539C16.0936 13.7539 15.8616 13.6631 15.6905 13.5016C15.5195 13.34 15.4234 13.1209 15.4234 12.8924V3.77198L2.38562 16.0865C2.21445 16.2482 1.9823 16.339 1.74023 16.339C1.49816 16.339 1.26601 16.2482 1.09484 16.0865C0.923675 15.9248 0.827515 15.7056 0.827515 15.477C0.827515 15.2483 0.923675 15.0291 1.09484 14.8674L14.1337 2.55399L4.47686 2.55399C4.23493 2.55399 4.0029 2.46323 3.83183 2.30166C3.66076 2.14009 3.56465 1.92096 3.56465 1.69246C3.56465 1.46397 3.66076 1.24484 3.83183 1.08327C4.0029 0.921701 4.23493 0.830933 4.47686 0.830933L16.3356 0.830933C16.5775 0.830933 16.8095 0.921701 16.9806 1.08327C17.1517 1.24484 17.2478 1.46397 17.2478 1.69246Z" fill="#033020"/>
</svg>
