<svg width="24" height="17" viewBox="0 0 24 17" fill="none" xmlns="http://www.w3.org/2000/svg">
<path fill-rule="evenodd" clip-rule="evenodd" d="M7.23991 10.3597C7.11093 10.3597 6.98682 10.2884 6.92528 10.1651C6.83868 9.99156 6.90918 9.78061 7.08281 9.69401L20.9996 2.7504C21.1279 2.68636 21.1803 2.52981 21.1163 2.40155L20.6833 1.53364C20.6522 1.47143 20.5989 1.42508 20.533 1.40306C20.4671 1.38105 20.3965 1.38599 20.3343 1.41697L6.60205 8.26867C6.42842 8.35527 6.21752 8.28483 6.13086 8.1112C6.04426 7.93763 6.1147 7.72667 6.28833 7.64001L20.0207 0.788249C20.2509 0.67347 20.5119 0.655174 20.7557 0.736653C20.9997 0.818194 21.1972 0.989813 21.312 1.21998L21.7449 2.08777C21.9819 2.56256 21.7884 3.14188 21.3133 3.379L7.39653 10.3226C7.34615 10.3477 7.29261 10.3597 7.23991 10.3597Z" fill="#033020"/>
<path fill-rule="evenodd" clip-rule="evenodd" d="M19.2453 4.37584C19.178 4.37584 19.1101 4.35657 19.05 4.31631L16.9516 2.90988C16.7904 2.80187 16.7473 2.58366 16.8553 2.42253C16.9633 2.26134 17.1815 2.21828 17.3427 2.32629L19.4412 3.73273C19.6023 3.84073 19.6454 4.05895 19.5374 4.22014C19.4697 4.32119 19.3586 4.37584 19.2453 4.37584Z" fill="#033020"/>
<path fill-rule="evenodd" clip-rule="evenodd" d="M16.2046 5.89296C16.1373 5.89296 16.0694 5.87369 16.0093 5.83344L13.9108 4.42701C13.7497 4.319 13.7066 4.10078 13.8146 3.93965C13.9226 3.77853 14.1408 3.73541 14.302 3.84342L16.4005 5.24985C16.5616 5.35786 16.6047 5.57607 16.4967 5.73726C16.429 5.83832 16.3178 5.89296 16.2046 5.89296Z" fill="#033020"/>
<path fill-rule="evenodd" clip-rule="evenodd" d="M13.1638 7.41015C13.0965 7.41015 13.0286 7.39088 12.9685 7.35062L10.8701 5.94419C10.7089 5.83618 10.6658 5.61797 10.7738 5.45684C10.8818 5.29565 11.1001 5.25259 11.2612 5.3606L13.3596 6.76704C13.5208 6.87504 13.5639 7.09326 13.4559 7.25445C13.3882 7.3555 13.2771 7.41015 13.1638 7.41015Z" fill="#033020"/>
<path fill-rule="evenodd" clip-rule="evenodd" d="M10.0511 8.96313C9.98386 8.96313 9.91592 8.94386 9.85585 8.90361L7.75739 7.49718C7.5962 7.38917 7.55315 7.17095 7.66116 7.00983C7.76916 6.84864 7.98738 6.80558 8.14851 6.91359L10.247 8.32002C10.4082 8.42803 10.4512 8.64624 10.3432 8.80737C10.2755 8.90849 10.1644 8.96313 10.0511 8.96313Z" fill="#033020"/>
<path fill-rule="evenodd" clip-rule="evenodd" d="M7.23961 14.7498C7.04561 14.7498 6.88832 14.5925 6.88832 14.3985V9.60984C6.88832 8.63374 6.0942 7.83962 5.1181 7.83962C4.6452 7.83962 4.20073 8.02374 3.86651 8.35808C3.53877 8.6857 3.35471 9.12091 3.34806 9.5838L3.34794 14.3985C3.34794 14.5925 3.19065 14.7498 2.99665 14.7498C2.80265 14.7498 2.64536 14.5925 2.64536 14.3985L2.64548 9.58148C2.64548 9.57996 2.64548 9.57844 2.64555 9.57691C2.65402 8.92898 2.91121 8.31972 3.36971 7.86139C3.83657 7.39435 4.45754 7.13711 5.1181 7.13711C6.4816 7.13711 7.5909 8.24641 7.5909 9.60991V14.3986C7.5909 14.5925 7.43361 14.7498 7.23961 14.7498Z" fill="#033020"/>
<path fill-rule="evenodd" clip-rule="evenodd" d="M7.76593 16.2677C7.57193 16.2677 7.41464 16.1104 7.41464 15.9164V14.7498H2.82162V15.9164C2.82162 16.1104 2.66433 16.2677 2.47033 16.2677C2.27633 16.2677 2.11904 16.1104 2.11904 15.9164V14.3985C2.11904 14.2045 2.27633 14.0472 2.47033 14.0472H7.76593C7.95993 14.0472 8.11722 14.2045 8.11722 14.3985V15.9164C8.11722 16.1104 7.95993 16.2677 7.76593 16.2677Z" fill="#033020"/>
<path fill-rule="evenodd" clip-rule="evenodd" d="M5.11816 10.8174C4.54732 10.8174 4.08296 10.353 4.08296 9.7822C4.08296 9.21135 4.54738 8.74699 5.11816 8.74699C5.68894 8.74699 6.15336 9.21141 6.15336 9.7822C6.1533 10.353 5.68894 10.8174 5.11816 10.8174ZM5.11816 9.44951C4.93471 9.44951 4.78553 9.59874 4.78553 9.78213C4.78553 9.96558 4.93477 10.1148 5.11816 10.1148C5.30161 10.1148 5.45079 9.96552 5.45079 9.78213C5.45079 9.59874 5.30155 9.44951 5.11816 9.44951Z" fill="#033020"/>
<path fill-rule="evenodd" clip-rule="evenodd" d="M21.1705 16.2677C20.9765 16.2677 20.8192 16.1104 20.8192 15.9164V9.66638H19.6198V15.9164C19.6198 16.1104 19.4625 16.2677 19.2685 16.2677C19.0745 16.2677 18.9172 16.1104 18.9172 15.9164V9.31509C18.9172 9.12109 19.0745 8.9638 19.2685 8.9638H21.1705C21.3645 8.9638 21.5218 9.12109 21.5218 9.31509V15.9164C21.5218 16.1104 21.3646 16.2677 21.1705 16.2677Z" fill="#033020"/>
<path fill-rule="evenodd" clip-rule="evenodd" d="M22.8726 16.2677H1.09274C0.898742 16.2677 0.741455 16.1104 0.741455 15.9164C0.741455 15.7224 0.898742 15.5651 1.09274 15.5651H22.8726C23.0666 15.5651 23.2239 15.7224 23.2239 15.9164C23.2239 16.1104 23.0666 16.2677 22.8726 16.2677Z" fill="#033020"/>
</svg>
