<svg width="22" height="19" viewBox="0 0 22 19" fill="none" xmlns="http://www.w3.org/2000/svg">
<path fill-rule="evenodd" clip-rule="evenodd" d="M1.17813 0.969141C1.06365 1.02587 0.981714 1.10826 0.926626 1.22206L0.882935 1.31229L0.883392 9.47328L0.88385 17.6342L0.926273 17.7278C0.97689 17.8395 1.03102 17.9011 1.14288 17.9746L1.22606 18.0292L1.39243 18.0293L1.5588 18.0294L1.62118 17.9892C1.72539 17.9221 1.79947 17.8464 1.84665 17.759L1.89153 17.6758L1.89748 16.6515L1.90342 15.6272L3.65472 15.6325L5.40601 15.6378L5.41641 16.6568L5.42681 17.6758L5.46199 17.7486C5.50804 17.8439 5.57394 17.9139 5.67636 17.9766L5.75954 18.0275L5.91705 18.0284L6.07455 18.0294L6.17437 17.967L6.27419 17.9046L6.33371 17.8214L6.39323 17.7382L6.41432 17.6262L6.4354 17.5142V9.72902V1.94384H8.14076H9.84609L9.84081 4.07894L9.83551 6.21404L9.68994 6.25944C9.03167 6.46467 8.49626 6.99467 8.27851 7.65658C8.20637 7.87591 8.18245 8.04423 8.18312 8.32814L8.1837 8.56729L8.21171 8.72436C8.31016 9.27615 8.64676 9.78421 9.13461 10.1174C9.36295 10.2733 9.53405 10.345 9.93949 10.4545L10.0227 10.477L10.3346 10.4777L10.6465 10.4784L10.8548 10.4232C11.1101 10.3555 11.3405 10.2511 11.5673 10.1004L11.7394 9.98602L11.8963 9.8193C12.2181 9.47718 12.396 9.12636 12.4768 8.67432L12.5134 8.4694L12.5019 8.24801C12.475 7.7324 12.3053 7.2965 11.9814 6.91145L11.8605 6.76775L11.6772 6.62773C11.4207 6.43183 11.2297 6.32993 10.9689 6.24997L10.8545 6.21489L10.8492 4.07938L10.8439 1.94384H12.7676H14.6913V4.08222V6.22063L14.5867 6.24478C14.5291 6.25806 14.4402 6.28797 14.3892 6.31124C14.3381 6.33449 14.2736 6.36217 14.2457 6.37275C14.2179 6.38334 14.1126 6.44573 14.0117 6.51138L13.8283 6.63077L13.6608 6.7984C13.1654 7.29415 12.9591 7.91594 13.0497 8.64061L13.0717 8.81684L13.1359 9.00244C13.3862 9.72617 13.9078 10.2113 14.6601 10.4199L14.8681 10.4776L15.18 10.4784L15.492 10.4792L15.7103 10.4211C16.1599 10.3016 16.5504 10.0617 16.8154 9.74225C17.0372 9.47496 17.109 9.35538 17.22 9.06838L17.2916 8.88322L17.3223 8.69406C17.361 8.45547 17.3612 8.22721 17.323 7.9734C17.2858 7.72712 17.2526 7.62493 17.1238 7.36113L17.0223 7.15318L16.8892 6.98544C16.6999 6.74695 16.3282 6.44616 16.1292 6.37053C16.0993 6.35915 16.0449 6.33563 16.0083 6.31827C15.9717 6.30088 15.8873 6.27052 15.8208 6.25079L15.6999 6.21489L15.6946 4.07938L15.6893 1.94384H17.3947H19.1V2.79443V3.64501L18.8245 3.65225L18.5489 3.65949L18.4263 3.72163L18.3036 3.78378L18.235 3.88799L18.1663 3.99222L18.1528 4.09672L18.1393 4.20124L18.1627 4.28821C18.1756 4.33606 18.2164 4.41535 18.2533 4.46445L18.3205 4.55371L18.4332 4.61089L18.546 4.66808H18.823H19.1V5.53111V6.39413H18.8477H18.5953L18.5201 6.41669C18.4787 6.42909 18.4081 6.46419 18.3633 6.49468L18.2819 6.5501L18.2179 6.65408L18.1538 6.75806L18.1547 6.9081L18.1555 7.05816L18.2378 7.17636L18.3202 7.29457L18.4242 7.34866L18.5281 7.40273L18.8141 7.40992L19.1 7.41712V8.27619V9.13526L18.8037 9.14242L18.5073 9.14957L18.4147 9.20156L18.3221 9.25355L18.2541 9.3428C18.2167 9.3919 18.1756 9.47134 18.1626 9.51936L18.1391 9.60664L18.1515 9.69695C18.1757 9.87372 18.3004 10.0471 18.4473 10.1085L18.5164 10.1374H18.8082H19.1V11.0004V11.8634L18.8661 11.8636L18.6321 11.8639L18.5289 11.8952C18.3873 11.9381 18.2988 12.0022 18.2261 12.1146L18.1644 12.2099L18.1513 12.305L18.1383 12.4001L18.1638 12.5065L18.1894 12.6129L18.2963 12.725L18.4034 12.8371L18.4865 12.8596L18.5697 12.8822L18.8349 12.8823L19.1 12.8824V13.7454V14.6085H18.8538H18.6075L18.5097 14.6379C18.38 14.6769 18.2861 14.7515 18.2137 14.8728L18.1542 14.9724L18.154 15.118L18.1538 15.2635L18.2115 15.3616C18.2817 15.4811 18.3799 15.5589 18.5097 15.598L18.6075 15.6274H18.853H19.0985L19.1045 16.6516L19.1104 17.6758L19.1553 17.759C19.2025 17.8464 19.2766 17.9221 19.3808 17.9892L19.4431 18.0294L19.6095 18.0293L19.7759 18.0292L19.8591 17.9746C19.9709 17.9011 20.0251 17.8395 20.0757 17.7278L20.1181 17.6342L20.1186 16.6308L20.119 15.6274H20.3648H20.6106L20.7186 15.5954L20.8267 15.5633L20.9024 15.4967L20.9782 15.4302L21.0267 15.3261L21.0752 15.2219L21.0754 15.1182L21.0756 15.0146L21.0195 14.9036C20.9886 14.8426 20.9326 14.7656 20.895 14.7326L20.8267 14.6726L20.7186 14.6405L20.6106 14.6085H20.3648H20.119V13.7454V12.8824L20.3946 12.8815L20.6701 12.8806L20.7463 12.8534C20.8495 12.8165 20.9335 12.7449 21.0053 12.6329L21.0652 12.5393L21.0638 12.3833L21.0625 12.2273L21.0063 12.1312L20.9502 12.035L20.8694 11.979C20.8249 11.9482 20.744 11.9096 20.6896 11.8932L20.5907 11.8634H20.3549H20.119V11.0018V10.1403L20.4394 10.1336L20.7597 10.127L20.8501 10.0615L20.9404 9.9961L21.0014 9.89711L21.0623 9.79813L21.0716 9.68647L21.0809 9.5748L21.0445 9.47958C21.0245 9.42719 20.9789 9.3511 20.9432 9.31044L20.8784 9.23656L20.7742 9.18806L20.6701 9.13959L20.3946 9.13938L20.119 9.13917V8.27615V7.41312H20.3593H20.5997L20.6869 7.39093C20.7348 7.37875 20.8113 7.34333 20.8568 7.31226L20.9395 7.25578L21.0024 7.15403L21.0652 7.05228L21.0648 6.90517L21.0644 6.75806L21.0052 6.65847C20.9361 6.54224 20.8484 6.46989 20.7233 6.42574L20.6337 6.39413H20.3763H20.119V5.53111V4.66808L20.3946 4.66788L20.6701 4.66767L20.7742 4.61919L20.8784 4.5707L20.9432 4.49681C20.9789 4.45615 21.0246 4.37973 21.0448 4.32697L21.0814 4.23102L21.0698 4.11843L21.0581 4.00584L20.9873 3.89504L20.9164 3.78426L20.7933 3.72188L20.6701 3.65949L20.3946 3.65225L20.119 3.64501V2.48582V1.3266L20.0558 1.20016L19.9927 1.07372L19.8847 1.00449L19.7768 0.935244L10.5222 0.930024L1.26766 0.924805L1.17813 0.969141ZM5.41641 2.79646V3.64909H3.65917H1.90193V2.79646V1.94384H3.65917H5.41641V2.79646ZM5.41144 5.53631L5.41687 6.39413H3.6594H1.90193V5.53098V4.66785L3.65397 4.67316L5.40601 4.67848L5.41144 5.53631ZM10.508 7.18468L10.6606 7.20448L10.7888 7.26096C11.1287 7.41079 11.3674 7.69409 11.4593 8.05686L11.4934 8.19109L11.4844 8.37919L11.4755 8.56729L11.4263 8.70246C11.3615 8.88041 11.2474 9.04761 11.1028 9.17652L10.9854 9.28119L10.8277 9.35709L10.6699 9.43302L10.5075 9.4567L10.345 9.48037L10.1734 9.45572L10.0019 9.43108L9.82779 9.34526L9.65373 9.25945L9.52625 9.13013L9.3988 9.0008L9.3214 8.84643L9.24399 8.69206L9.20787 8.49806L9.17175 8.30405L9.20793 8.12373L9.24412 7.94342L9.31044 7.80824L9.37673 7.67307L9.53607 7.51184L9.69543 7.35061L9.85564 7.2776L10.0158 7.20458L10.1544 7.18672C10.3435 7.16233 10.3362 7.16237 10.508 7.18468ZM15.3529 7.18512L15.5247 7.20666L15.6749 7.27795L15.8251 7.34926L15.9454 7.45644C16.0115 7.5154 16.1013 7.61632 16.1448 7.68072L16.2239 7.79784L16.2827 7.97461L16.3414 8.15137L16.34 8.33853L16.3387 8.5257L16.2864 8.67447C16.128 9.12468 15.748 9.42561 15.2886 9.46444L15.1373 9.47723L14.9891 9.45223L14.8409 9.42723L14.7139 9.36716C14.3938 9.21576 14.1801 8.96648 14.0892 8.63837L14.0466 8.48494V8.31774V8.15054L14.0892 7.99711C14.1453 7.79435 14.2135 7.6827 14.3895 7.50494L14.5353 7.35758L14.6978 7.28113L14.8603 7.20469L14.9993 7.18676C15.0758 7.1769 15.148 7.16765 15.1598 7.16619C15.1715 7.16476 15.2584 7.17327 15.3529 7.18512ZM5.41144 8.27095L5.40601 9.12877L3.65397 9.1341L1.90193 9.1394V8.27627V7.41312H3.6594H5.41687L5.41144 8.27095ZM5.41144 11.0056L5.41687 11.8634H3.6594H1.90193V11.0003V10.1371L3.65397 10.1424L5.40601 10.1478L5.41144 11.0056ZM5.41144 13.7402L5.40601 14.5981L3.65397 14.6034L1.90193 14.6087V13.7456V12.8824H3.6594H5.41687L5.41144 13.7402Z" fill="#F1F1F1"/>
</svg>
