<svg width="18" height="19" viewBox="0 0 18 19" fill="none" xmlns="http://www.w3.org/2000/svg">
<mask id="path-1-inside-1_114_1206" fill="white">
<path d="M17.7341 7.02769H17.7293L10.4706 3.83089V2.83425H10.7576C10.8938 2.83496 11.0262 2.78948 11.1332 2.70525C11.2402 2.62101 11.3155 2.50298 11.3468 2.37043C11.3781 2.23789 11.3636 2.09864 11.3055 1.97544C11.2475 1.85223 11.1494 1.75233 11.0273 1.69204L9.25191 0.813584C9.168 0.772315 9.07573 0.750854 8.98222 0.750854C8.8887 0.750854 8.79643 0.772315 8.71252 0.813584L6.93714 1.69204C6.81502 1.75233 6.71693 1.85223 6.6589 1.97544C6.60087 2.09864 6.58631 2.23789 6.61761 2.37043C6.64891 2.50298 6.72421 2.62101 6.83122 2.70525C6.93824 2.78948 7.07065 2.83496 7.20684 2.83425H7.49381V3.83089L0.23454 7.02501H0.229778C0.176547 7.04838 0.131324 7.08682 0.0996894 7.1356C0.0680552 7.18437 0.0513946 7.24134 0.0517638 7.29947V8.19252C0.0517638 8.35042 0.114489 8.50185 0.226142 8.6135C0.337794 8.72516 0.489227 8.78788 0.647127 8.78788H0.944809V16.5276H0.647127C0.489227 16.5276 0.337794 16.5903 0.226142 16.702C0.114489 16.8136 0.0517638 16.9651 0.0517638 17.123V18.016C0.0517638 18.1739 0.114489 18.3253 0.226142 18.437C0.337794 18.5487 0.489227 18.6114 0.647127 18.6114H17.3173C17.4752 18.6114 17.6266 18.5487 17.7383 18.437C17.8499 18.3253 17.9127 18.1739 17.9127 18.016V17.123C17.9127 16.9651 17.8499 16.8136 17.7383 16.702C17.6266 16.5903 17.4752 16.5276 17.3173 16.5276H17.0196V8.78788H17.3173C17.4752 8.78788 17.6266 8.72516 17.7383 8.6135C17.8499 8.50185 17.9127 8.35042 17.9127 8.19252V7.29947C17.9125 7.24173 17.8955 7.18529 17.8638 7.13703C17.832 7.08878 17.787 7.05079 17.7341 7.02769ZM10.1104 4.32266L16.1995 7.00179H1.76492L7.854 4.32266H10.1104ZM7.20119 2.22579L8.98728 1.34733L10.7624 2.22579L10.7576 2.23888L7.20119 2.22579ZM9.87526 2.83425V3.72729H8.08917V2.83425H9.87526ZM1.54017 8.78788H2.13554V16.5276H1.54017V8.78788ZM14.3405 16.5276V12.9554H15.2335V16.5276H14.3405ZM12.8521 12.9554H13.7451V16.5276H12.8521V12.9554ZM15.2335 12.3601H12.8521V8.78788H15.2335V12.3601ZM12.2567 16.5276H11.6614V8.78788H12.2567V16.5276ZM11.066 16.5276H6.89844V8.78788H11.066V16.5276ZM6.30308 16.5276H5.70772V8.78788H6.30308V16.5276ZM2.7309 12.9554H3.62394V16.5276H2.7309V12.9554ZM4.21931 12.9554H5.11235V16.5276H4.21931V12.9554ZM5.11235 12.3601H2.7309V8.78788H5.11235V12.3601ZM17.3173 18.016H0.647127V17.123H17.3173V18.016ZM16.4243 16.5276H15.8289V8.78788H16.4243V16.5276ZM0.647127 8.19252V7.59715H17.3173V8.19252H0.647127Z"/>
</mask>
<path d="M17.7341 7.02769H17.7293L10.4706 3.83089V2.83425H10.7576C10.8938 2.83496 11.0262 2.78948 11.1332 2.70525C11.2402 2.62101 11.3155 2.50298 11.3468 2.37043C11.3781 2.23789 11.3636 2.09864 11.3055 1.97544C11.2475 1.85223 11.1494 1.75233 11.0273 1.69204L9.25191 0.813584C9.168 0.772315 9.07573 0.750854 8.98222 0.750854C8.8887 0.750854 8.79643 0.772315 8.71252 0.813584L6.93714 1.69204C6.81502 1.75233 6.71693 1.85223 6.6589 1.97544C6.60087 2.09864 6.58631 2.23789 6.61761 2.37043C6.64891 2.50298 6.72421 2.62101 6.83122 2.70525C6.93824 2.78948 7.07065 2.83496 7.20684 2.83425H7.49381V3.83089L0.23454 7.02501H0.229778C0.176547 7.04838 0.131324 7.08682 0.0996894 7.1356C0.0680552 7.18437 0.0513946 7.24134 0.0517638 7.29947V8.19252C0.0517638 8.35042 0.114489 8.50185 0.226142 8.6135C0.337794 8.72516 0.489227 8.78788 0.647127 8.78788H0.944809V16.5276H0.647127C0.489227 16.5276 0.337794 16.5903 0.226142 16.702C0.114489 16.8136 0.0517638 16.9651 0.0517638 17.123V18.016C0.0517638 18.1739 0.114489 18.3253 0.226142 18.437C0.337794 18.5487 0.489227 18.6114 0.647127 18.6114H17.3173C17.4752 18.6114 17.6266 18.5487 17.7383 18.437C17.8499 18.3253 17.9127 18.1739 17.9127 18.016V17.123C17.9127 16.9651 17.8499 16.8136 17.7383 16.702C17.6266 16.5903 17.4752 16.5276 17.3173 16.5276H17.0196V8.78788H17.3173C17.4752 8.78788 17.6266 8.72516 17.7383 8.6135C17.8499 8.50185 17.9127 8.35042 17.9127 8.19252V7.29947C17.9125 7.24173 17.8955 7.18529 17.8638 7.13703C17.832 7.08878 17.787 7.05079 17.7341 7.02769ZM10.1104 4.32266L16.1995 7.00179H1.76492L7.854 4.32266H10.1104ZM7.20119 2.22579L8.98728 1.34733L10.7624 2.22579L10.7576 2.23888L7.20119 2.22579ZM9.87526 2.83425V3.72729H8.08917V2.83425H9.87526ZM1.54017 8.78788H2.13554V16.5276H1.54017V8.78788ZM14.3405 16.5276V12.9554H15.2335V16.5276H14.3405ZM12.8521 12.9554H13.7451V16.5276H12.8521V12.9554ZM15.2335 12.3601H12.8521V8.78788H15.2335V12.3601ZM12.2567 16.5276H11.6614V8.78788H12.2567V16.5276ZM11.066 16.5276H6.89844V8.78788H11.066V16.5276ZM6.30308 16.5276H5.70772V8.78788H6.30308V16.5276ZM2.7309 12.9554H3.62394V16.5276H2.7309V12.9554ZM4.21931 12.9554H5.11235V16.5276H4.21931V12.9554ZM5.11235 12.3601H2.7309V8.78788H5.11235V12.3601ZM17.3173 18.016H0.647127V17.123H17.3173V18.016ZM16.4243 16.5276H15.8289V8.78788H16.4243V16.5276ZM0.647127 8.19252V7.59715H17.3173V8.19252H0.647127Z" fill="#F1F1F1" stroke="#F1F1F1" stroke-width="0.893882" mask="url(#path-1-inside-1_114_1206)"/>
</svg>
