<svg width="22" height="20" viewBox="0 0 22 20" fill="none" xmlns="http://www.w3.org/2000/svg">
<path d="M10.9721 19.0188C10.836 19.0188 10.7257 18.9086 10.7257 18.7725V10.8885C10.7257 10.8266 10.6734 10.7742 10.6114 10.7742H2.31517C2.25319 10.7742 2.20078 10.8266 2.20078 10.8885V18.7725C2.20078 18.9086 2.09048 19.0188 1.95446 19.0188C1.81845 19.0188 1.70815 18.9086 1.70815 18.7725V10.8885C1.70815 10.5538 1.98043 10.2816 2.31517 10.2816H10.6114C10.946 10.2816 11.2184 10.5538 11.2184 10.8885V18.7725C11.2184 18.9086 11.1081 19.0188 10.9721 19.0188Z" fill="#033020"/>
<path d="M9.91571 10.7742C9.7797 10.7742 9.6694 10.6639 9.6694 10.5279V5.41515H3.25712V10.5279C3.25712 10.6639 3.14682 10.7742 3.0108 10.7742C2.87479 10.7742 2.76449 10.6639 2.76449 10.5279V5.16884C2.76449 5.03282 2.87479 4.92252 3.0108 4.92252H9.91571C10.0517 4.92252 10.162 5.03282 10.162 5.16884V10.5279C10.162 10.6639 10.0518 10.7742 9.91571 10.7742Z" fill="#033020"/>
<path d="M3.01061 5.4152C2.96253 5.4152 2.91395 5.40116 2.87129 5.37185C2.75922 5.2948 2.73075 5.14145 2.80779 5.02937L5.73848 0.764653C5.92238 0.497008 6.18657 0.343506 6.46323 0.343506C6.73989 0.343506 7.00409 0.497008 7.18799 0.764653L10.1187 5.02937C10.1957 5.1415 10.1673 5.2948 10.0552 5.37185C9.9431 5.4489 9.7897 5.42052 9.7127 5.30835L6.78201 1.04363C6.69004 0.90983 6.57683 0.836133 6.46323 0.836133C6.34963 0.836133 6.23643 0.90983 6.14445 1.04363L3.21377 5.30835C3.16608 5.37781 3.08898 5.4152 3.01061 5.4152Z" fill="#033020"/>
<path d="M8.49867 10.7742C8.36266 10.7742 8.25236 10.6639 8.25236 10.5279V8.15716C8.25236 7.17068 7.44977 6.36809 6.46328 6.36809C5.4768 6.36809 4.67421 7.17068 4.67421 8.15716V10.5279C4.67421 10.6639 4.56391 10.7742 4.4279 10.7742C4.29188 10.7742 4.18158 10.6639 4.18158 10.5279V8.15716C4.18158 6.89904 5.20516 5.87546 6.46328 5.87546C7.72145 5.87546 8.74498 6.89904 8.74498 8.15716V10.5279C8.74498 10.6639 8.63468 10.7742 8.49867 10.7742Z" fill="#033020"/>
<path d="M8.49867 19.0188C8.36266 19.0188 8.25236 18.9086 8.25236 18.7725V10.7742H4.67421V18.7725C4.67421 18.9086 4.56391 19.0188 4.4279 19.0188C4.29188 19.0188 4.18158 18.9086 4.18158 18.7725V10.5279C4.18158 10.3918 4.29188 10.2816 4.4279 10.2816H8.49867C8.63468 10.2816 8.74498 10.3918 8.74498 10.5279V18.7725C8.74498 18.9086 8.63468 19.0188 8.49867 19.0188Z" fill="#033020"/>
<path d="M15.3456 18.9971C15.2467 18.9971 15.1534 18.937 15.1157 18.8391L12.0182 10.7847H9.91571C9.7797 10.7847 9.6694 10.6745 9.6694 10.5384V8.8895C9.6694 8.75349 9.7797 8.64319 9.91571 8.64319H13.1969C13.2988 8.64319 13.3902 8.70595 13.4268 8.80107L16.5243 16.8555H19.4475C19.5835 16.8555 19.6938 16.9657 19.6938 17.1018V18.7508C19.6938 18.8868 19.5835 18.9971 19.4475 18.9971C19.3114 18.9971 19.2011 18.8868 19.2011 18.7508V17.3481H16.3552C16.2533 17.3481 16.1619 17.2853 16.1253 17.1902L13.0277 9.13582H10.1621V10.2921H12.1874C12.2893 10.2921 12.3807 10.3549 12.4173 10.45L15.5755 18.6623C15.6243 18.7892 15.561 18.9318 15.434 18.9806C15.405 18.9918 15.3751 18.9971 15.3456 18.9971Z" fill="#033020"/>
<path d="M21.6229 19.0188H0.341406C0.205392 19.0188 0.0950928 18.9086 0.0950928 18.7725C0.0950928 18.6364 0.205392 18.5262 0.341406 18.5262H21.6229C21.759 18.5262 21.8692 18.6364 21.8692 18.7725C21.8692 18.9086 21.7589 19.0188 21.6229 19.0188Z" fill="#033020"/>
<path d="M8.49867 12.5777H4.4279C4.29188 12.5777 4.18158 12.4674 4.18158 12.3313C4.18158 12.1953 4.29188 12.085 4.4279 12.085H8.49867C8.63468 12.085 8.74498 12.1953 8.74498 12.3313C8.74498 12.4674 8.63468 12.5777 8.49867 12.5777Z" fill="#033020"/>
<path d="M8.49867 14.8964H4.4279C4.29188 14.8964 4.18158 14.7862 4.18158 14.6501C4.18158 14.5141 4.29188 14.4038 4.4279 14.4038H8.49867C8.63468 14.4038 8.74498 14.5141 8.74498 14.6501C8.74498 14.7862 8.63468 14.8964 8.49867 14.8964Z" fill="#033020"/>
<path d="M8.49867 17.2153H4.4279C4.29188 17.2153 4.18158 17.105 4.18158 16.969C4.18158 16.8329 4.29188 16.7227 4.4279 16.7227H8.49867C8.63468 16.7227 8.74498 16.8329 8.74498 16.969C8.74498 17.105 8.63468 17.2153 8.49867 17.2153Z" fill="#033020"/>
<path d="M6.46328 4.59025C5.81602 4.59025 5.2894 4.06368 5.2894 3.41641C5.2894 2.76915 5.81597 2.24258 6.46328 2.24258C7.11055 2.24258 7.63711 2.76915 7.63711 3.41641C7.63711 4.06368 7.11055 4.59025 6.46328 4.59025ZM6.46328 2.73521C6.08765 2.73521 5.78203 3.04079 5.78203 3.41641C5.78203 3.79204 6.08765 4.09762 6.46328 4.09762C6.83891 4.09762 7.14449 3.79204 7.14449 3.41641C7.14449 3.04079 6.83891 2.73521 6.46328 2.73521Z" fill="#033020"/>
<path d="M17.8572 7.12811H12.9176C12.1266 7.12811 11.483 6.48455 11.483 5.69349C11.483 4.93124 12.0806 4.30595 12.8319 4.26142C12.9479 3.58612 13.5378 3.07059 14.2457 3.07059C14.3318 3.07059 14.4165 3.07803 14.4997 3.09291C14.6062 2.07366 15.4705 1.27649 16.5175 1.27649C17.6361 1.27649 18.5462 2.18657 18.5462 3.30523C18.5462 3.66529 18.4514 4.01446 18.2742 4.32068C18.8625 4.4997 19.2918 5.04741 19.2918 5.69353C19.2918 6.48455 18.6483 7.12811 17.8572 7.12811ZM12.9176 4.75148C12.3982 4.75148 11.9756 5.17406 11.9756 5.69349C11.9756 6.21291 12.3982 6.63549 12.9176 6.63549H17.8573C18.3766 6.63549 18.7992 6.21291 18.7992 5.69349C18.7992 5.17406 18.3766 4.75148 17.8573 4.75148L17.8401 4.75168C17.7408 4.75331 17.6516 4.6968 17.6109 4.60714C17.5703 4.51749 17.587 4.41226 17.6532 4.3395C17.9114 4.05624 18.0536 3.68889 18.0536 3.30518C18.0536 2.45816 17.3645 1.76907 16.5175 1.76907C15.6704 1.76907 14.9813 2.45816 14.9813 3.30518C14.9813 3.33804 14.9824 3.37247 14.9848 3.40755C14.9905 3.4941 14.9503 3.57726 14.8789 3.62657C14.8076 3.67583 14.7156 3.68396 14.6367 3.64785C14.5137 3.59164 14.3822 3.56317 14.2457 3.56317C13.7263 3.56317 13.3037 3.98574 13.3037 4.50517C13.3049 4.57621 13.2755 4.64636 13.2227 4.69404C13.1701 4.74173 13.0993 4.76616 13.0287 4.75804C12.9918 4.7537 12.9544 4.75148 12.9176 4.75148Z" fill="#033020"/>
</svg>
