<svg width="17" height="17" viewBox="0 0 17 17" fill="none" xmlns="http://www.w3.org/2000/svg">
<path d="M8.5 13.0006L4.44185 8.94365L5.25371 8.11803L7.92665 10.791V0.87207H9.07335V10.791L11.7451 8.11917L12.5581 8.94365L8.5 13.0006ZM2.3262 16.9258C1.79796 16.9258 1.35725 16.7492 1.00406 16.396C0.650882 16.0428 0.473909 15.6017 0.473145 15.0727V12.2943H1.61984V15.0727C1.61984 15.2493 1.69323 15.4114 1.84 15.5589C1.98678 15.7065 2.14846 15.7799 2.32505 15.7791H14.6749C14.8508 15.7791 15.0125 15.7057 15.16 15.5589C15.3075 15.4121 15.3809 15.2501 15.3802 15.0727V12.2943H16.5269V15.0727C16.5269 15.601 16.3503 16.0417 15.9971 16.3949C15.6439 16.748 15.2028 16.925 14.6738 16.9258H2.3262Z" fill="#033020"/>
</svg>
