<svg width="24" height="34" viewBox="0 0 24 34" fill="none" xmlns="http://www.w3.org/2000/svg">
<path fill-rule="evenodd" clip-rule="evenodd" d="M16.3047 32.3617C16.5632 32.7795 16.9765 33.078 17.4544 33.192C17.9323 33.306 18.4359 33.2263 18.8551 32.9702C19.2744 32.7141 19.5752 32.3025 19.692 31.8253C19.8087 31.3481 19.7318 30.844 19.4781 30.4233L15.2193 23.5136L14.3255 19.897C14.2826 19.947 14.2406 19.9974 14.199 20.0484L11.3105 23.1551L11.6644 24.5852C11.7051 24.8121 11.7878 25.0294 11.9081 25.2259L16.3047 32.3617ZM2.09837 30.7119L4.86601 23.3812C4.96319 23.1222 5.11659 22.8879 5.31518 22.6953L9.63997 17.9075V10.0524C9.64112 9.4567 9.8783 8.88569 10.2996 8.46443C10.7208 8.04318 11.2918 7.806 11.8876 7.80484C12.4933 7.80484 12.7501 7.97239 13.2423 8.21887L22.5896 13.6156C22.7778 13.7246 22.9427 13.8696 23.0749 14.0423C23.2071 14.2151 23.3039 14.4121 23.3599 14.6223C23.4159 14.8324 23.43 15.0516 23.4013 15.2672C23.3726 15.4828 23.3017 15.6906 23.1927 15.8788C23.0837 16.067 22.9387 16.2319 22.766 16.3641C22.5932 16.4962 22.3962 16.5931 22.186 16.6491C21.9759 16.7051 21.7567 16.7191 21.5411 16.6904C21.3255 16.6618 21.1177 16.5909 20.9295 16.4819L14.135 12.5591V17.8296C14.135 18.7989 14.0107 18.7621 13.4754 19.4175L8.25858 25.0285L5.61354 32.0353C5.43802 32.5014 5.08453 32.8786 4.63085 33.0841C4.17716 33.2896 3.66044 33.3064 3.19435 33.1308C2.72827 32.9553 2.351 32.6018 2.14554 32.1482C1.94008 31.6945 1.92326 31.1777 2.09879 30.7117L2.09837 30.7119ZM11.0173 0.360352C10.4747 0.360352 9.94426 0.521256 9.49309 0.822717C9.04192 1.12418 8.69028 1.55266 8.48263 2.05397C8.27498 2.55528 8.22065 3.10691 8.32651 3.6391C8.43237 4.17129 8.69366 4.66013 9.07735 5.04382C9.46104 5.42751 9.94988 5.6888 10.4821 5.79466C11.0143 5.90052 11.5659 5.84619 12.0672 5.63854C12.5685 5.43089 12.997 5.07925 13.2985 4.62808C13.5999 4.17691 13.7608 3.64648 13.7608 3.10386C13.7608 2.37624 13.4718 1.67842 12.9573 1.16391C12.4428 0.649399 11.7449 0.360352 11.0173 0.360352ZM8.68062 14.9328V10.1262L6.50511 12.359L1.95763 13.6411C1.53602 13.7581 1.17782 14.0371 0.961259 14.4173C0.744695 14.7975 0.687362 15.2479 0.801779 15.6702C0.916196 16.0925 1.19307 16.4524 1.57193 16.6712C1.95079 16.8901 2.40086 16.9501 2.82384 16.8383L7.97941 15.4426C8.15433 15.3974 8.31343 15.3049 8.43928 15.1753L8.68062 14.9328Z" fill="#033020"/>
</svg>
