<svg width="41" height="28" viewBox="0 0 41 28" fill="none" xmlns="http://www.w3.org/2000/svg">
<path d="M40.2644 8.62296C40.1689 8.34389 39.8303 8.12684 39.5477 8.12684C38.3237 8.12684 37.1 8.12684 35.876 8.12684C35.5935 8.12684 35.2548 8.34389 35.1592 8.62296C35.0658 8.89612 34.9959 9.13984 34.9495 9.36905L32.4969 2.55906C32.0924 1.4361 31.0211 0.681641 29.8314 0.681641H11.0733C9.8836 0.681641 8.81248 1.4361 8.40776 2.55926L5.95508 9.36986C5.90855 9.14045 5.83871 8.89642 5.74513 8.62296C5.64963 8.34389 5.31099 8.12684 5.02844 8.12684C3.8046 8.12684 2.58075 8.12684 1.35681 8.12684C1.07427 8.12684 0.735621 8.34389 0.640117 8.62296C0.26828 9.70954 0.268483 10.3316 0.640218 11.4182C0.735723 11.6973 1.07437 11.9144 1.35691 11.9144C2.58086 11.9144 3.8047 11.9144 5.02854 11.9144C5.03201 11.9144 5.03567 11.9135 5.03924 11.9134L4.98385 12.0674C4.23518 12.317 3.69464 13.0244 3.69464 13.8596V19.5623V20.0323V26.3427C3.69464 26.8443 4.09967 27.2508 4.59949 27.2508H9.15347C9.65319 27.2508 10.0583 26.8443 10.0583 26.3427V21.9218H30.8464V26.3427C30.8464 26.8443 31.2515 27.2508 31.7512 27.2508H36.3052C36.805 27.2508 37.21 26.8443 37.21 26.3427V20.0323V19.5623V13.8596C37.21 13.0246 36.6697 12.3173 35.9213 12.0675L35.8659 11.9134C35.8692 11.9135 35.8728 11.9143 35.8761 11.9143C37.1001 11.9143 38.3238 11.9143 39.5478 11.9143C39.8304 11.9143 40.169 11.6972 40.2645 11.4181C40.6362 10.3316 40.636 9.70954 40.2644 8.62296ZM11.4198 4.02363H29.4824L32.3443 11.9701H8.55804L11.4198 4.02363ZM11.9236 17.5681H8.11381C7.29642 17.5681 6.6339 16.9031 6.6339 16.0828C6.6339 15.2625 7.29632 14.5975 8.11381 14.5975H11.9236C12.7409 14.5975 13.4035 15.2624 13.4035 16.0828C13.4036 16.9031 12.7409 17.5681 11.9236 17.5681ZM32.7906 17.5681H28.9808C28.1635 17.5681 27.5008 16.9031 27.5008 16.0828C27.5008 15.2625 28.1635 14.5975 28.9808 14.5975H32.7906C33.608 14.5975 34.2705 15.2624 34.2705 16.0828C34.2705 16.9031 33.608 17.5681 32.7906 17.5681Z" fill="#033020"/>
</svg>
