<svg width="211" height="40" viewBox="0 0 211 40" fill="none" xmlns="http://www.w3.org/2000/svg">
<path d="M4.81592 32.0722L6.29884 28.6646C7.01911 28.7487 7.10385 28.7488 8.1207 28.9591C3.8838 27.1081 0.917969 21.7653 0.917969 16.0018C0.917969 7.37759 7.56991 0.43618 15.8319 0.43618C24.0938 0.43618 30.7458 7.37759 30.7458 16.0438C30.7458 24.2894 24.3904 31.357 16.9758 31.357C16.4674 31.357 16.1285 31.357 15.5777 31.2729V31.4832C20.6196 33.4605 23.7125 34.3439 27.441 34.9329L26.0852 39.4343C22.1025 38.8874 19.6027 38.004 14.8574 35.5219C10.3663 33.2502 7.73938 32.3667 4.81592 32.0722ZM15.8319 5.35827C10.451 5.35827 6.34121 9.90173 6.34121 15.8756C6.34121 22.1859 10.3239 26.7294 15.8319 26.7294C21.2551 26.7294 25.4073 22.0597 25.4073 16.0438C25.4073 9.98588 21.2551 5.35827 15.8319 5.35827Z" fill="#033020"/>
<path d="M36.9412 30.9363H31.6027L46.6861 0.0996094L61.0069 30.9363H55.4565L53.0415 25.6356H39.3986L36.9412 30.9363ZM41.3476 21.3866H51.1772L46.3048 10.2804L41.3476 21.3866Z" fill="#033020"/>
<path d="M83.2953 30.9363V17.3901L71.9404 1.15134H78.1263L86.0916 12.9307L94.2265 1.15134H100.412L88.5914 17.3059V30.9363H83.2953Z" fill="#033020"/>
<path d="M103.165 30.9363V0.0996094L122.952 19.9563V1.15134H128.163V32.0722L108.377 12.1735V30.9363H103.165Z" fill="#033020"/>
<path d="M135.604 30.9363V1.15134H142.849C153.992 1.15134 160.814 6.78862 160.814 16.0018C160.814 21.5549 158.229 26.0143 153.399 28.7067C150.518 30.3053 147.552 30.9363 142.849 30.9363H135.604ZM140.816 26.1825H143.527C150.984 26.1825 155.433 22.3963 155.433 16.0438C155.433 9.6914 150.984 5.90517 143.527 5.90517H140.816V26.1825Z" fill="#033020"/>
<path d="M170.806 30.9363V17.3901L159.451 1.15134H165.637L173.602 12.9307L181.737 1.15134H187.923L176.102 17.3059V30.9363H170.806Z" fill="#033020"/>
<path fill-rule="evenodd" clip-rule="evenodd" d="M63.9823 9.98823V30.9363H69.1937V9.98823H63.9823ZM69.1937 6.47227V1.15134H63.9823V6.47227H69.1937Z" fill="#033020"/>
<path d="M210.366 31.0286H191.06V27.2597L201.278 16.8323C203.763 14.3476 205.005 12.198 205.005 10.3833C205.005 8.98742 204.587 7.88466 203.749 7.07504C202.911 6.26542 201.823 5.86062 200.483 5.86062C198.026 5.86062 196.211 7.07504 195.039 9.5039L190.977 7.11692C191.87 5.19059 193.154 3.7249 194.829 2.71985C196.504 1.68689 198.375 1.17041 200.441 1.17041C203.037 1.17041 205.243 1.98003 207.057 3.59927C208.9 5.24642 209.821 7.45193 209.821 10.2158C209.821 13.1751 208.16 16.3577 204.838 19.7637L198.221 26.3803H210.366V31.0286Z" fill="#033020"/>
</svg>
