<svg width="44" height="275" viewBox="0 0 44 275" fill="none" xmlns="http://www.w3.org/2000/svg">
<path d="M28.0011 266.064C28.0011 270.482 31.5828 274.064 36.0011 274.064C40.4194 274.064 44.0011 270.482 44.0011 266.064C44.0011 261.645 40.4194 258.064 36.0011 258.064C31.5828 258.064 28.0011 261.645 28.0011 266.064ZM0.330322 8.36816C0.330322 12.7864 3.91204 16.3682 8.33032 16.3682C12.7486 16.3682 16.3303 12.7864 16.3303 8.36816C16.3303 3.94989 12.7486 0.368164 8.33032 0.368164C3.91204 0.368164 0.330322 3.94989 0.330322 8.36816ZM37.4925 265.904L9.82175 8.20802L6.8389 8.52831L34.5097 266.224L37.4925 265.904Z" fill="#F1F1F1"/>
</svg>
