<svg width="119" height="208" viewBox="0 0 119 208" fill="none" xmlns="http://www.w3.org/2000/svg">
<path d="M102.31 199.063C102.31 203.481 105.892 207.063 110.31 207.063C114.729 207.063 118.31 203.481 118.31 199.063C118.31 194.644 114.729 191.063 110.31 191.063C105.892 191.063 102.31 194.644 102.31 199.063ZM0.676025 8.48828C0.676025 12.9066 4.25775 16.4883 8.67603 16.4883C13.0943 16.4883 16.676 12.9066 16.676 8.48828C16.676 4.07 13.0943 0.488281 8.67603 0.488281C4.25775 0.488281 0.676025 4.07 0.676025 8.48828ZM111.634 198.357L9.99957 7.78243L7.35248 9.19414L108.987 199.768L111.634 198.357Z" fill="#F1F1F1"/>
</svg>
