<svg width="161" height="247" viewBox="0 0 161 247" fill="none" xmlns="http://www.w3.org/2000/svg">
<path d="M0.255127 238.063C0.255127 242.481 3.83685 246.063 8.25513 246.063C12.6734 246.063 16.2551 242.481 16.2551 238.063C16.2551 233.645 12.6734 230.063 8.25513 230.063C3.83685 230.063 0.255127 233.645 0.255127 238.063ZM144.755 8.82129C144.755 13.2396 148.337 16.8213 152.755 16.8213C157.174 16.8213 160.755 13.2396 160.755 8.82129C160.755 4.40301 157.174 0.821289 152.755 0.821289C148.337 0.821289 144.755 4.40301 144.755 8.82129ZM9.52407 238.863L154.024 9.62115L151.486 8.02142L6.98618 237.263L9.52407 238.863Z" fill="#F1F1F1"/>
</svg>
