<svg width="18" height="19" viewBox="0 0 18 19" fill="none" xmlns="http://www.w3.org/2000/svg">
<path d="M17.8304 1.06609C17.8805 1.11605 17.9203 1.1754 17.9474 1.24075C17.9745 1.30609 17.9885 1.37614 17.9885 1.44688C17.9885 1.51763 17.9745 1.58768 17.9474 1.65302C17.9203 1.71836 17.8805 1.77771 17.8304 1.82767L13.3696 6.28744H16.374C16.5166 6.28744 16.6534 6.3441 16.7543 6.44497C16.8552 6.54583 16.9118 6.68263 16.9118 6.82528C16.9118 6.96792 16.8552 7.10472 16.7543 7.20559C16.6534 7.30645 16.5166 7.36312 16.374 7.36312H12.0713C11.9286 7.36312 11.7918 7.30645 11.6909 7.20559C11.5901 7.10472 11.5334 6.96792 11.5334 6.82528V2.52256C11.5334 2.37992 11.5901 2.24312 11.6909 2.14225C11.7918 2.04139 11.9286 1.98472 12.0713 1.98472C12.2139 1.98472 12.3507 2.04139 12.4516 2.14225C12.5524 2.24312 12.6091 2.37992 12.6091 2.52256V5.52693L17.0689 1.06609C17.1188 1.016 17.1782 0.976266 17.2435 0.949152C17.3089 0.922038 17.3789 0.908081 17.4497 0.908081C17.5204 0.908081 17.5904 0.922038 17.6558 0.949152C17.7211 0.976266 17.7805 1.016 17.8304 1.06609ZM4.70716 2.33754C4.64366 2.25586 4.5635 2.18862 4.47202 2.14029C4.38053 2.09196 4.27981 2.06366 4.17655 2.05725C4.07328 2.05084 3.96983 2.06647 3.87308 2.10312C3.77632 2.13976 3.68846 2.19657 3.61535 2.26978L2.50309 3.3831C1.98354 3.90373 1.79207 4.64057 2.01904 5.28706C2.96212 7.96239 4.49434 10.3916 6.50247 12.3951C8.50602 14.4033 10.9352 15.9355 13.6106 16.8786C14.257 17.1055 14.9939 16.9141 15.5145 16.3945L16.6268 15.2823C16.7 15.2091 16.7568 15.1213 16.7934 15.0245C16.8301 14.9278 16.8457 14.8243 16.8393 14.7211C16.8329 14.6178 16.8046 14.5171 16.7562 14.4256C16.7079 14.3341 16.6407 14.254 16.559 14.1905L14.0774 12.2607C13.9901 12.1931 13.8886 12.1462 13.7805 12.1235C13.6725 12.1008 13.5607 12.1028 13.4535 12.1294L11.0978 12.7178C10.7833 12.7959 10.454 12.7915 10.1418 12.705C9.8295 12.6185 9.54486 12.4528 9.31537 12.2241L6.6735 9.58117C6.44458 9.35179 6.27875 9.0672 6.19206 8.75494C6.10537 8.44268 6.10077 8.11333 6.17869 7.79877L6.76816 5.44303C6.79479 5.33588 6.79682 5.22408 6.77409 5.11603C6.75137 5.00798 6.70447 4.90648 6.63693 4.81914L4.70716 2.33754ZM2.80321 1.45871C2.99145 1.27042 3.21759 1.12432 3.46662 1.03012C3.71565 0.935926 3.98188 0.895787 4.24761 0.91237C4.51335 0.928953 4.77251 1.00188 5.0079 1.1263C5.24329 1.25073 5.44951 1.42381 5.61288 1.63405L7.54265 4.11457C7.89655 4.56958 8.02133 5.16228 7.88149 5.72163L7.29309 8.07737C7.26288 8.19939 7.26463 8.32714 7.29817 8.44829C7.33171 8.56945 7.3959 8.67991 7.48456 8.76903L10.1275 11.412C10.2167 11.5008 10.3274 11.5651 10.4487 11.5987C10.5701 11.6322 10.6981 11.6338 10.8202 11.6034L13.1749 11.015C13.451 10.9464 13.739 10.9413 14.0173 11C14.2957 11.0586 14.5571 11.1797 14.782 11.3539L17.2625 13.2837C18.1542 13.9775 18.236 15.2952 17.4378 16.0922L16.3256 17.2045C15.5296 18.0005 14.3399 18.3501 13.2308 17.9596C10.3918 16.962 7.8143 15.3369 5.69033 13.2051C3.55874 11.0815 1.93358 8.50438 0.93583 5.66569C0.546434 4.55775 0.89603 3.36697 1.69203 2.57097L2.80321 1.45871Z" fill="#033020"/>
</svg>
