<svg width="34" height="34" viewBox="0 0 34 34" fill="none" xmlns="http://www.w3.org/2000/svg">
<circle opacity="0.9" cx="16.8572" cy="17.0497" r="16.6478" fill="white"/>
<path d="M22.9502 17.0496C22.9506 17.2104 22.9094 17.3685 22.8306 17.5086C22.7518 17.6488 22.638 17.7661 22.5004 17.8492L13.973 23.0658C13.8292 23.1539 13.6645 23.2019 13.496 23.2051C13.3274 23.2082 13.1611 23.1663 13.0142 23.0836C12.8686 23.0022 12.7474 22.8836 12.6629 22.7398C12.5785 22.5961 12.5338 22.4324 12.5336 22.2657V11.8336C12.5338 11.6669 12.5785 11.5032 12.6629 11.3595C12.7474 11.2157 12.8686 11.097 13.0142 11.0157C13.1611 10.933 13.3274 10.8911 13.496 10.8942C13.6645 10.8973 13.8292 10.9454 13.973 11.0334L22.5004 16.25C22.638 16.3332 22.7518 16.4505 22.8306 16.5906C22.9094 16.7307 22.9506 16.8889 22.9502 17.0496Z" fill="#033020"/>
</svg>
