<svg width="150" height="129" viewBox="0 0 150 129" fill="none" xmlns="http://www.w3.org/2000/svg">
<path d="M50.7021 0.491211C43.6442 0.491211 37.9226 6.21279 37.9226 13.2707V62.051C37.9226 67.6637 41.0396 72.9673 46.5721 74.1484C48.2256 74.5014 49.9023 73.6788 51.6309 72.8307C53.2423 72.0401 54.899 71.2273 56.6243 71.3239C58.1164 71.4074 59.5155 72.2311 60.9231 73.0598C62.4973 73.9865 64.082 74.9195 65.8193 74.8305C70.4168 74.595 72.2538 69.3159 72.5987 64.4293V56.9859C67.3778 63.9991 60.7543 65.0121 58.1828 64.9342C58.1049 62.9081 58.0269 60.3107 58.0269 59.2457C68.2349 59.2457 72.7545 49.5832 72.7545 47.1675V44.1285C71.1701 46.3364 66.4895 50.752 60.4426 50.752C60.4426 49.4169 60.4165 47.8432 60.3945 46.5178C60.3785 45.5535 60.3646 44.7206 60.3646 44.2064C68.3908 44.2064 72.9104 37.3492 72.9104 33.6867V31.9724C71.6636 33.6348 67.8921 36.9595 62.7803 36.9595C62.7505 36.0666 62.7207 35.2646 62.6953 34.5797C62.6542 33.4714 62.6244 32.6694 62.6244 32.2841C70.261 32.2841 73.1441 24.6476 73.1441 22.8553V20.9072C71.9493 22.206 68.6557 24.8034 65.0401 24.8034C65.0401 22.4969 64.9362 19.9462 64.8842 18.9591C72.1311 18.9591 73.2221 12.1798 73.2221 10.7771H76.7286C76.7286 12.1798 77.8196 18.9591 85.0665 18.9591C85.0145 19.9462 84.9106 22.4969 84.9106 24.8034C81.295 24.8034 78.0014 22.206 76.8066 20.9072V22.8553C76.8066 24.6476 79.6897 32.2841 87.3263 32.2841C87.3263 32.6694 87.2965 33.4714 87.2554 34.5797C87.23 35.2646 87.2002 36.0666 87.1704 36.9595C82.0586 36.9595 78.2871 33.6348 77.0403 31.9724V33.6867C77.0403 37.3492 81.5599 44.2064 89.586 44.2064C89.586 44.7206 89.5722 45.5535 89.5562 46.5178C89.5342 47.8432 89.5081 49.4169 89.5081 50.752C83.4612 50.752 78.7806 46.3364 77.1962 44.1285V47.1675C77.1962 49.5832 81.7158 59.2457 91.9238 59.2457C91.9238 60.3107 91.8458 62.9081 91.7679 64.9342C89.1964 65.0121 82.5729 63.9991 77.352 56.9859C77.352 59.4795 77.4299 61.7766 77.4299 64.4666C78.2922 74.5901 82.0867 74.8305 84.521 74.8305C86.1574 74.8305 87.526 73.9701 89.1106 73.0922C90.7939 72.1597 92.5127 71.2074 94.1836 71.246C95.6014 71.2787 96.9837 72.0167 98.3692 72.7563C100.038 73.6471 101.711 74.5403 103.456 74.2071C109.768 73.0023 112.262 67.8645 112.262 62.051V13.2707C112.262 6.21279 106.54 0.491211 99.4824 0.491211H50.7021Z" fill="#033020"/>
<path d="M3.58357 111.999L4.63528 109.582C5.1461 109.642 5.2062 109.642 5.92737 109.791C2.9225 108.478 0.819092 104.689 0.819092 100.601C0.819092 94.4849 5.53674 89.5619 11.3962 89.5619C17.2557 89.5619 21.9734 94.4849 21.9734 100.631C21.9734 106.479 17.4661 111.491 12.2075 111.491C11.847 111.491 11.6066 111.491 11.2159 111.432V111.581C14.7917 112.983 16.9853 113.61 19.6296 114.027L18.668 117.22C15.8434 116.832 14.0706 116.206 10.7051 114.445C7.51995 112.834 5.65693 112.207 3.58357 111.999ZM11.3962 93.0528C7.58005 93.0528 4.66532 96.275 4.66532 100.512C4.66532 104.987 7.4899 108.209 11.3962 108.209C15.2425 108.209 18.1872 104.898 18.1872 100.631C18.1872 96.3347 15.2425 93.0528 11.3962 93.0528Z" fill="#1E1E1E"/>
<path d="M26.3673 111.193H22.5812L33.2785 89.3232L43.4349 111.193H39.4986L37.7858 107.434H28.1101L26.3673 111.193ZM29.4924 104.42H36.4636L33.008 96.5436L29.4924 104.42Z" fill="#1E1E1E"/>
<path d="M59.2422 111.193V101.586L51.1891 90.0691H55.5763L61.2254 98.4232L66.9948 90.0691H71.3819L62.9983 101.526V111.193H59.2422Z" fill="#1E1E1E"/>
<path d="M73.3343 111.193V89.3232L87.3671 103.406V90.0691H91.0631V111.999L77.0303 97.8862V111.193H73.3343Z" fill="#1E1E1E"/>
<path d="M96.3404 111.193V90.0691H101.479C109.381 90.0691 114.219 94.0672 114.219 100.601C114.219 104.54 112.386 107.702 108.961 109.612C106.917 110.746 104.814 111.193 101.479 111.193H96.3404ZM100.036 107.822H101.959C107.248 107.822 110.403 105.136 110.403 100.631C110.403 96.1259 107.248 93.4406 101.959 93.4406H100.036V107.822Z" fill="#1E1E1E"/>
<path d="M121.306 111.193V101.586L113.253 90.0691H117.64L123.289 98.4232L129.058 90.0691H133.445L125.062 101.526V111.193H121.306Z" fill="#1E1E1E"/>
<path fill-rule="evenodd" clip-rule="evenodd" d="M45.5452 96.3364V111.193H49.2411V96.3364H45.5452ZM49.2411 93.8428V90.0691H45.5452V93.8428H49.2411Z" fill="#1E1E1E"/>
<path d="M149.362 111.259H135.671V108.586L142.917 101.19C144.68 99.4282 145.561 97.9037 145.561 96.6167C145.561 95.6267 145.264 94.8446 144.67 94.2704C144.076 93.6962 143.304 93.4091 142.353 93.4091C140.611 93.4091 139.324 94.2704 138.492 95.993L135.611 94.3001C136.245 92.9339 137.156 91.8944 138.344 91.1816C139.532 90.4491 140.858 90.0828 142.323 90.0828C144.165 90.0828 145.729 90.657 147.016 91.8053C148.323 92.9735 148.976 94.5377 148.976 96.4979C148.976 98.5967 147.798 100.854 145.442 103.269L140.749 107.962H149.362V111.259Z" fill="#1E1E1E"/>
<path d="M12.068 122.665V122.949H10.5395V126.991H10.2302V122.949H8.70166V122.665H12.068Z" fill="#1E1E1E"/>
<path d="M15.9151 122.665L14.2895 125.366H15.3085V125.601H14.2046V126.991H13.8953V125.601H12.7792V125.366H13.8104L12.1848 122.665H12.5245L14.0591 125.211L15.5936 122.665H15.9151Z" fill="#1E1E1E"/>
<path d="M18.1718 122.665C19.2394 122.665 19.8823 123.209 19.8823 124.124C19.8823 125.032 19.2394 125.576 18.1718 125.576H16.9588V126.991H16.6494V122.665H18.1718ZM18.1718 125.292C19.0817 125.292 19.5669 124.865 19.5669 124.124C19.5669 123.376 19.0817 122.949 18.1718 122.949H16.9588V125.292H18.1718Z" fill="#1E1E1E"/>
<path d="M23.6917 122.949H21.3747V124.847H23.2429V125.1H21.3747V126.991H21.0654V125.1H20.4103V124.847H21.0654V122.665H23.6917V122.949Z" fill="#1E1E1E"/>
<path d="M26.2732 124.247C27.274 124.247 27.8078 124.705 27.8078 125.595C27.8078 126.509 27.2376 126.991 26.1944 126.991H24.5688V122.665H24.8782V124.247H26.2732ZM28.5902 126.991V122.665H28.8996V126.991H28.5902ZM26.2004 126.726C27.0496 126.726 27.4924 126.342 27.4924 125.601C27.4924 124.865 27.0557 124.513 26.2004 124.513H24.8782V126.726H26.2004Z" fill="#1E1E1E"/>
<path d="M33.5749 122.665H33.8843V126.991H33.5749V124.933H30.7363V126.991H30.427V122.665H30.7363V124.655H33.5749V122.665Z" fill="#1E1E1E"/>
<path d="M40.011 122.665L38.3005 125.502V126.991H37.9912V125.502L36.2807 122.665H36.6204L38.1549 125.211L39.6895 122.665H40.011Z" fill="#1E1E1E"/>
<path d="M42.4679 122.337C41.9099 122.337 41.5338 122.059 41.5217 121.583H41.7704C41.7825 121.929 42.0615 122.14 42.4679 122.14C42.8682 122.14 43.1472 121.929 43.1594 121.583H43.408C43.3959 122.059 43.0199 122.337 42.4679 122.337ZM40.7453 126.991V122.665H41.0547V126.46L43.9479 122.665H44.2208V126.991H43.9115V123.203L41.0183 126.991H40.7453Z" fill="#1E1E1E"/>
<path d="M50.2561 126.991L48.6366 124.939H47.6176V126.991H47.3083V122.665H47.6176V124.655H48.6427L50.1651 122.665H50.5109L48.8853 124.773L50.62 126.991H50.2561Z" fill="#1E1E1E"/>
<path d="M51.6869 126.707H54.3072V126.991H51.3776V122.665H54.2162V122.949H51.6869V124.655H53.9493V124.933H51.6869V126.707Z" fill="#1E1E1E"/>
<path d="M60.132 122.665H60.4413V126.991H55.3403V122.665H55.6496V126.707H57.7361V122.665H58.0455V126.707H60.132V122.665Z" fill="#1E1E1E"/>
<path d="M62.2778 126.707H64.898V126.991H61.9684V122.665H64.8071V122.949H62.2778V124.655H64.5402V124.933H62.2778V126.707Z" fill="#1E1E1E"/>
<path d="M69.0791 122.665H69.3884V126.991H69.0791V124.933H66.2404V126.991H65.9311V122.665H66.2404V124.655H69.0791V122.665Z" fill="#1E1E1E"/>
<path d="M70.9185 126.991V122.665H71.2278V126.991H70.9185Z" fill="#1E1E1E"/>
<path d="M82.8113 126.991L81.4101 124.939H80.4761V126.991H80.1728V124.939H79.2387L77.8376 126.991H77.4676L78.984 124.766L77.5828 122.665H77.9347L79.2327 124.655H80.1728V122.665H80.4761V124.655H81.4101L82.7142 122.665H83.0599L81.6649 124.766L83.1813 126.991H82.8113Z" fill="#1E1E1E"/>
<path d="M83.9617 126.991V122.665H84.2711V126.46L87.1643 122.665H87.4372V126.991H87.1279V123.203L84.2347 126.991H83.9617Z" fill="#1E1E1E"/>
<path d="M89.3145 122.665H92.0985V126.991H91.7892V122.949H89.5935L89.5389 124.538C89.4722 126.281 89.1993 127.029 88.4835 127.029C88.3865 127.029 88.2955 127.022 88.1803 126.991L88.2167 126.701C88.2955 126.719 88.3501 126.726 88.4168 126.726C88.9688 126.726 89.1932 126.101 89.2538 124.544L89.3145 122.665Z" fill="#1E1E1E"/>
<path d="M95.4482 127.022C94.1805 127.022 93.2403 126.083 93.2403 124.828C93.2403 123.573 94.1805 122.634 95.4482 122.634C96.7098 122.634 97.656 123.567 97.656 124.828C97.656 126.089 96.7098 127.022 95.4482 127.022ZM95.4482 126.732C96.5278 126.732 97.3406 125.922 97.3406 124.828C97.3406 123.734 96.5278 122.924 95.4482 122.924C94.3624 122.924 93.5497 123.734 93.5497 124.828C93.5497 125.922 94.3624 126.732 95.4482 126.732Z" fill="#1E1E1E"/>
<path d="M100.522 122.337C99.9641 122.337 99.5881 122.059 99.5759 121.583H99.8246C99.8368 121.929 100.116 122.14 100.522 122.14C100.922 122.14 101.201 121.929 101.214 121.583H101.462C101.45 122.059 101.074 122.337 100.522 122.337ZM98.7996 126.991V122.665H99.1089V126.46L102.002 122.665H102.275V126.991H101.966V123.203L99.0725 126.991H98.7996Z" fill="#1E1E1E"/>
<path d="M108.31 126.991L106.691 124.939H105.672V126.991H105.363V122.665H105.672V124.655H106.697L108.219 122.665H108.565L106.94 124.773L108.674 126.991H108.31Z" fill="#1E1E1E"/>
<path d="M111.246 127.022C109.978 127.022 109.038 126.083 109.038 124.828C109.038 123.573 109.978 122.634 111.246 122.634C112.507 122.634 113.453 123.567 113.453 124.828C113.453 126.089 112.507 127.022 111.246 127.022ZM111.246 126.732C112.325 126.732 113.138 125.922 113.138 124.828C113.138 123.734 112.325 122.924 111.246 122.924C110.16 122.924 109.347 123.734 109.347 124.828C109.347 125.922 110.16 126.732 111.246 126.732Z" fill="#1E1E1E"/>
<path d="M118.916 126.991H118.612L118.606 123.289L116.829 126.417H116.677L114.9 123.302V126.991H114.597V122.665H114.858L116.756 126.009L118.655 122.665H118.909L118.916 126.991Z" fill="#1E1E1E"/>
<path d="M120.443 122.665H123.937V126.991H123.628V122.949H120.753V126.991H120.443V122.665Z" fill="#1E1E1E"/>
<path d="M125.814 122.665H128.598V126.991H128.288V122.949H126.093L126.038 124.538C125.971 126.281 125.698 127.029 124.983 127.029C124.886 127.029 124.795 127.022 124.68 126.991L124.716 126.701C124.795 126.719 124.849 126.726 124.916 126.726C125.468 126.726 125.692 126.101 125.753 124.544L125.814 122.665Z" fill="#1E1E1E"/>
<path d="M130.437 126.707H133.057V126.991H130.128V122.665H132.966V122.949H130.437V124.655H132.7V124.933H130.437V126.707Z" fill="#1E1E1E"/>
<path d="M137.038 126.991L135.419 124.939H134.4V126.991H134.09V122.665H134.4V124.655H135.425L136.947 122.665H137.293L135.667 124.773L137.402 126.991H137.038Z" fill="#1E1E1E"/>
<path d="M139.973 127.022C138.712 127.022 137.772 126.089 137.772 124.828C137.772 123.567 138.712 122.634 139.973 122.634C140.574 122.634 141.114 122.832 141.484 123.234L141.29 123.437C140.926 123.073 140.483 122.924 139.986 122.924C138.9 122.924 138.081 123.74 138.081 124.828C138.081 125.916 138.9 126.732 139.986 126.732C140.483 126.732 140.926 126.577 141.29 126.213L141.484 126.417C141.114 126.818 140.574 127.022 139.973 127.022Z" fill="#1E1E1E"/>
<path d="M74.3236 128.129V121.632H74.6329V128.129H74.3236Z" fill="#1E1E1E"/>
</svg>
