<svg width="150" height="129" viewBox="0 0 150 129" fill="none" xmlns="http://www.w3.org/2000/svg">
<path d="M50.7019 0.849121C43.6439 0.849121 37.9224 6.5707 37.9224 13.6286V62.4089C37.9224 68.0216 41.0393 73.3252 46.5719 74.5063C48.2254 74.8593 49.902 74.0368 51.6307 73.1886C53.2421 72.398 54.8987 71.5852 56.6241 71.6818C58.1161 71.7654 59.5153 72.589 60.9229 73.4177C62.497 74.3444 64.0818 75.2774 65.8191 75.1884C70.4166 74.9529 72.2536 69.6739 72.5984 64.7872V57.3439C67.3775 64.357 60.754 65.37 58.1825 65.2921C58.1046 63.2661 58.0267 60.6686 58.0267 59.6036C68.2347 59.6036 72.7543 49.9411 72.7543 47.5255V44.4864C71.1698 46.6943 66.4892 51.1099 60.4423 51.1099C60.4423 49.7748 60.4162 48.2011 60.3942 46.8757C60.3782 45.9114 60.3644 45.0785 60.3644 44.5644C68.3905 44.5644 72.9101 37.7071 72.9101 34.0446V32.3303C71.6633 33.9927 67.8918 37.3174 62.78 37.3174C62.7503 36.4245 62.7205 35.6225 62.6951 34.9376C62.6539 33.8293 62.6242 33.0273 62.6242 32.642C70.2607 32.642 73.1439 25.0055 73.1439 23.2132V21.2651C71.9491 22.5639 68.6555 25.1613 65.0398 25.1613C65.0398 22.8548 64.9359 20.3041 64.884 19.3171C72.1309 19.3171 73.2218 12.5377 73.2218 11.1351H76.7284C76.7284 12.5377 77.8193 19.3171 85.0662 19.3171C85.0143 20.3041 84.9104 22.8548 84.9104 25.1613C81.2947 25.1613 78.0011 22.5639 76.8063 21.2651V23.2132C76.8063 25.0055 79.6895 32.642 87.326 32.642C87.326 33.0273 87.2963 33.8293 87.2551 34.9376C87.2297 35.6225 87.1999 36.4245 87.1702 37.3174C82.0584 37.3174 78.2869 33.9927 77.0401 32.3303V34.0446C77.0401 37.7071 81.5597 44.5644 89.5858 44.5644C89.5858 45.0785 89.572 45.9114 89.556 46.8757C89.534 48.2011 89.5079 49.7748 89.5079 51.1099C83.461 51.1099 78.7804 46.6943 77.1959 44.4864V47.5255C77.1959 49.9411 81.7155 59.6036 91.9235 59.6036C91.9235 60.6686 91.8456 63.2661 91.7677 65.2921C89.1962 65.37 82.5727 64.357 77.3518 57.3439C77.3518 59.8374 77.4297 62.1345 77.4297 64.8245C78.292 74.948 82.0864 75.1884 84.5208 75.1884C86.1572 75.1884 87.5257 74.328 89.1103 73.4501C90.7936 72.5176 92.5124 71.5653 94.1833 71.6039C95.6012 71.6366 96.9835 72.3746 98.3689 73.1142C100.038 74.005 101.711 74.8982 103.456 74.565C109.768 73.3602 112.262 68.2224 112.262 62.4089V13.6286C112.262 6.5707 106.54 0.849121 99.4821 0.849121H50.7019Z" fill="white"/>
<path d="M3.58333 112.357L4.63503 109.94C5.14586 110 5.20596 110 5.92713 110.149C2.92226 108.836 0.818848 105.047 0.818848 100.959C0.818848 94.8428 5.53649 89.9199 11.396 89.9199C17.2555 89.9199 21.9731 94.8428 21.9731 100.989C21.9731 106.837 17.4658 111.849 12.2073 111.849C11.8467 111.849 11.6063 111.849 11.2157 111.79V111.939C14.7915 113.341 16.985 113.968 19.6293 114.385L18.6678 117.578C15.8432 117.19 14.0703 116.563 10.7049 114.803C7.51971 113.192 5.65669 112.565 3.58333 112.357ZM11.396 93.4107C7.5798 93.4107 4.66508 96.6329 4.66508 100.87C4.66508 105.345 7.48966 108.567 11.396 108.567C15.2422 108.567 18.187 105.256 18.187 100.989C18.187 96.6926 15.2422 93.4107 11.396 93.4107Z" fill="white"/>
<path d="M26.367 111.551H22.5809L33.2782 89.6812L43.4347 111.551H39.4983L37.7855 107.792H28.1099L26.367 111.551ZM29.4921 104.778H36.4634L33.0078 96.9015L29.4921 104.778Z" fill="white"/>
<path d="M59.242 111.551V101.944L51.1889 90.4271H55.576L61.2252 98.7811L66.9945 90.4271H71.3816L62.998 101.884V111.551H59.242Z" fill="white"/>
<path d="M73.3341 111.551V89.6812L87.3668 103.764V90.4271H91.0628V112.357L77.0301 98.2441V111.551H73.3341Z" fill="white"/>
<path d="M96.3401 111.551V90.4271H101.478C109.381 90.4271 114.219 94.4251 114.219 100.959C114.219 104.898 112.386 108.06 108.961 109.97C106.917 111.103 104.814 111.551 101.478 111.551H96.3401ZM100.036 108.18H101.959C107.248 108.18 110.403 105.494 110.403 100.989C110.403 96.4838 107.248 93.7985 101.959 93.7985H100.036V108.18Z" fill="white"/>
<path d="M121.305 111.551V101.944L113.252 90.4271H117.639L123.289 98.7811L129.058 90.4271H133.445L125.061 101.884V111.551H121.305Z" fill="white"/>
<path fill-rule="evenodd" clip-rule="evenodd" d="M45.5449 96.6943V111.551H49.2409V96.6943H45.5449ZM49.2409 94.2007V90.4271H45.5449V94.2007H49.2409Z" fill="white"/>
<path d="M149.362 111.616H135.67V108.944L142.917 101.548C144.679 99.7861 145.56 98.2616 145.56 96.9746C145.56 95.9846 145.263 95.2025 144.669 94.6283C144.075 94.0541 143.303 93.767 142.353 93.767C140.611 93.767 139.324 94.6283 138.492 96.3509L135.611 94.658C136.245 93.2918 137.155 92.2523 138.343 91.5396C139.531 90.807 140.858 90.4407 142.323 90.4407C144.165 90.4407 145.729 91.0149 147.016 92.1633C148.323 93.3314 148.976 94.8956 148.976 96.8558C148.976 98.9546 147.798 101.212 145.442 103.627L140.749 108.32H149.362V111.616Z" fill="white"/>
<path d="M12.0677 123.023V123.307H10.5392V127.349H10.2299V123.307H8.70142V123.023H12.0677Z" fill="white"/>
<path d="M15.9148 123.023L14.2893 125.724H15.3083V125.959H14.2044V127.349H13.895V125.959H12.779V125.724H13.8101L12.1846 123.023H12.5243L14.0588 125.569L15.5934 123.023H15.9148Z" fill="white"/>
<path d="M18.1716 123.023C19.2391 123.023 19.8821 123.567 19.8821 124.481C19.8821 125.39 19.2391 125.934 18.1716 125.934H16.9585V127.349H16.6492V123.023H18.1716ZM18.1716 125.65C19.0814 125.65 19.5667 125.223 19.5667 124.481C19.5667 123.734 19.0814 123.307 18.1716 123.307H16.9585V125.65H18.1716Z" fill="white"/>
<path d="M23.6915 123.307H21.3745V125.205H23.2426V125.458H21.3745V127.349H21.0651V125.458H20.4101V125.205H21.0651V123.023H23.6915V123.307Z" fill="white"/>
<path d="M26.273 124.605C27.2738 124.605 27.8075 125.062 27.8075 125.953C27.8075 126.867 27.2374 127.349 26.1941 127.349H24.5686V123.023H24.8779V124.605H26.273ZM28.59 127.349V123.023H28.8993V127.349H28.59ZM26.2002 127.084C27.0494 127.084 27.4921 126.7 27.4921 125.959C27.4921 125.223 27.0554 124.871 26.2002 124.871H24.8779V127.084H26.2002Z" fill="white"/>
<path d="M33.5747 123.023H33.884V127.349H33.5747V125.291H30.7361V127.349H30.4267V123.023H30.7361V125.013H33.5747V123.023Z" fill="white"/>
<path d="M40.0107 123.023L38.3003 125.86V127.349H37.9909V125.86L36.2805 123.023H36.6201L38.1547 125.569L39.6893 123.023H40.0107Z" fill="white"/>
<path d="M42.4677 122.695C41.9096 122.695 41.5336 122.417 41.5215 121.941H41.7701C41.7823 122.287 42.0613 122.497 42.4677 122.497C42.868 122.497 43.147 122.287 43.1591 121.941H43.4078C43.3957 122.417 43.0196 122.695 42.4677 122.695ZM40.7451 127.349V123.023H41.0544V126.818L43.9476 123.023H44.2206V127.349H43.9112V123.561L41.018 127.349H40.7451Z" fill="white"/>
<path d="M50.2559 127.349L48.6364 125.297H47.6174V127.349H47.3081V123.023H47.6174V125.013H48.6425L50.1649 123.023H50.5106L48.8851 125.13L50.6198 127.349H50.2559Z" fill="white"/>
<path d="M51.6867 127.065H54.307V127.349H51.3774V123.023H54.216V123.307H51.6867V125.013H53.9491V125.291H51.6867V127.065Z" fill="white"/>
<path d="M60.1317 123.023H60.4411V127.349H55.34V123.023H55.6494V127.065H57.7359V123.023H58.0452V127.065H60.1317V123.023Z" fill="white"/>
<path d="M62.2775 127.065H64.8978V127.349H61.9682V123.023H64.8068V123.307H62.2775V125.013H64.5399V125.291H62.2775V127.065Z" fill="white"/>
<path d="M69.0788 123.023H69.3881V127.349H69.0788V125.291H66.2402V127.349H65.9309V123.023H66.2402V125.013H69.0788V123.023Z" fill="white"/>
<path d="M70.9183 127.349V123.023H71.2276V127.349H70.9183Z" fill="white"/>
<path d="M82.811 127.349L81.4099 125.297H80.4758V127.349H80.1726V125.297H79.2385L77.8373 127.349H77.4674L78.9837 125.124L77.5826 123.023H77.9344L79.2324 125.013H80.1726V123.023H80.4758V125.013H81.4099L82.714 123.023H83.0597L81.6647 125.124L83.181 127.349H82.811Z" fill="white"/>
<path d="M83.9615 127.349V123.023H84.2708V126.818L87.1641 123.023H87.437V127.349H87.1277V123.561L84.2345 127.349H83.9615Z" fill="white"/>
<path d="M89.3143 123.023H92.0983V127.349H91.7889V123.307H89.5933L89.5387 124.896C89.472 126.639 89.199 127.386 88.4833 127.386C88.3863 127.386 88.2953 127.38 88.18 127.349L88.2164 127.059C88.2953 127.077 88.3499 127.084 88.4166 127.084C88.9685 127.084 89.1929 126.459 89.2536 124.902L89.3143 123.023Z" fill="white"/>
<path d="M95.4479 127.38C94.1802 127.38 93.2401 126.441 93.2401 125.186C93.2401 123.931 94.1802 122.992 95.4479 122.992C96.7095 122.992 97.6558 123.925 97.6558 125.186C97.6558 126.447 96.7095 127.38 95.4479 127.38ZM95.4479 127.09C96.5276 127.09 97.3403 126.28 97.3403 125.186C97.3403 124.092 96.5276 123.282 95.4479 123.282C94.3622 123.282 93.5494 124.092 93.5494 125.186C93.5494 126.28 94.3622 127.09 95.4479 127.09Z" fill="white"/>
<path d="M100.522 122.695C99.9639 122.695 99.5878 122.417 99.5757 121.941H99.8244C99.8365 122.287 100.116 122.497 100.522 122.497C100.922 122.497 101.201 122.287 101.213 121.941H101.462C101.45 122.417 101.074 122.695 100.522 122.695ZM98.7993 127.349V123.023H99.1087V126.818L102.002 123.023H102.275V127.349H101.965V123.561L99.0723 127.349H98.7993Z" fill="white"/>
<path d="M108.31 127.349L106.691 125.297H105.672V127.349H105.362V123.023H105.672V125.013H106.697L108.219 123.023H108.565L106.939 125.13L108.674 127.349H108.31Z" fill="white"/>
<path d="M111.245 127.38C109.978 127.38 109.037 126.441 109.037 125.186C109.037 123.931 109.978 122.992 111.245 122.992C112.507 122.992 113.453 123.925 113.453 125.186C113.453 126.447 112.507 127.38 111.245 127.38ZM111.245 127.09C112.325 127.09 113.138 126.28 113.138 125.186C113.138 124.092 112.325 123.282 111.245 123.282C110.16 123.282 109.347 124.092 109.347 125.186C109.347 126.28 110.16 127.09 111.245 127.09Z" fill="white"/>
<path d="M118.915 127.349H118.612L118.606 123.647L116.829 126.775H116.677L114.9 123.659V127.349H114.597V123.023H114.858L116.756 126.367L118.654 123.023H118.909L118.915 127.349Z" fill="white"/>
<path d="M120.443 123.023H123.937V127.349H123.627V123.307H120.752V127.349H120.443V123.023Z" fill="white"/>
<path d="M125.813 123.023H128.598V127.349H128.288V123.307H126.093L126.038 124.896C125.971 126.639 125.698 127.386 124.983 127.386C124.885 127.386 124.795 127.38 124.679 127.349L124.716 127.059C124.795 127.077 124.849 127.084 124.916 127.084C125.468 127.084 125.692 126.459 125.753 124.902L125.813 123.023Z" fill="white"/>
<path d="M130.437 127.065H133.057V127.349H130.128V123.023H132.966V123.307H130.437V125.013H132.699V125.291H130.437V127.065Z" fill="white"/>
<path d="M137.038 127.349L135.419 125.297H134.4V127.349H134.09V123.023H134.4V125.013H135.425L136.947 123.023H137.293L135.667 125.13L137.402 127.349H137.038Z" fill="white"/>
<path d="M139.973 127.38C138.712 127.38 137.771 126.447 137.771 125.186C137.771 123.925 138.712 122.992 139.973 122.992C140.574 122.992 141.114 123.19 141.483 123.591L141.289 123.795C140.925 123.431 140.483 123.282 139.985 123.282C138.9 123.282 138.081 124.098 138.081 125.186C138.081 126.274 138.9 127.09 139.985 127.09C140.483 127.09 140.925 126.935 141.289 126.571L141.483 126.775C141.114 127.176 140.574 127.38 139.973 127.38Z" fill="white"/>
<path d="M74.3233 128.487V121.99H74.6327V128.487H74.3233Z" fill="white"/>
</svg>
