<svg width="222" height="57" viewBox="0 0 222 57" fill="none" xmlns="http://www.w3.org/2000/svg">
<path d="M10.2249 0.226562C4.854 0.226562 0.5 4.58057 0.5 9.95151V47.0723C0.5 51.3435 2.87194 55.3794 7.08212 56.2782C8.34041 56.5469 9.61628 55.9209 10.9318 55.2755C12.158 54.6739 13.4187 54.0553 14.7316 54.1288C15.8671 54.1924 16.9318 54.8192 18.0029 55.4498C19.2008 56.155 20.4068 56.865 21.7288 56.7973C25.2274 56.618 26.6254 52.6008 26.8878 48.8822V43.2179C22.9148 48.5548 17.8744 49.3257 15.9176 49.2664C15.8583 47.7246 15.799 45.748 15.799 44.9376C23.5671 44.9376 27.0064 37.5846 27.0064 35.7463V33.4337C25.8007 35.1138 22.2388 38.474 17.6372 38.474C17.6372 37.458 17.6174 36.2605 17.6006 35.2519C17.5885 34.5181 17.5779 33.8842 17.5779 33.493C23.6857 33.493 27.125 28.2747 27.125 25.4877V24.1831C26.1762 25.4482 23.3062 27.9782 19.4162 27.9782C19.3935 27.2987 19.3709 26.6884 19.3515 26.1672C19.3202 25.3238 19.2976 24.7135 19.2976 24.4203C25.1088 24.4203 27.3029 18.6091 27.3029 17.2452V15.7628C26.3936 16.7511 23.8873 18.7277 21.1358 18.7277C21.1358 16.9724 21.0568 15.0314 21.0173 14.2803C26.532 14.2803 27.3622 9.12133 27.3622 8.05396H30.0306C30.0306 9.12133 30.8608 14.2803 36.3755 14.2803C36.336 15.0314 36.257 16.9724 36.257 18.7277C33.5055 18.7277 30.9991 16.7511 30.0899 15.7628V17.2452C30.0899 18.6091 32.284 24.4203 38.0952 24.4203C38.0952 24.7135 38.0726 25.3238 38.0413 26.1672C38.0219 26.6884 37.9993 27.2987 37.9766 27.9782C34.0866 27.9782 31.2166 25.4482 30.2678 24.1831V25.4877C30.2678 28.2747 33.7071 33.493 39.8148 33.493C39.8148 33.8842 39.8043 34.5181 39.7922 35.2519C39.7754 36.2605 39.7556 37.458 39.7556 38.474C35.154 38.474 31.5921 35.1138 30.3864 33.4337V35.7463C30.3864 37.5846 33.8257 44.9376 41.5938 44.9376C41.5938 45.748 41.5345 47.7246 41.4752 49.2664C39.5184 49.3257 34.478 48.5548 30.505 43.2179C30.505 45.1155 30.5643 46.8635 30.5643 48.9106C31.2205 56.6143 34.108 56.7973 35.9605 56.7973C37.2057 56.7973 38.2472 56.1425 39.453 55.4745C40.734 54.7648 42.042 54.0402 43.3135 54.0695C44.3924 54.0945 45.4443 54.656 46.4986 55.2188C47.7684 55.8967 49.0417 56.5764 50.37 56.3229C55.1731 55.4061 57.0707 51.4963 57.0707 47.0723V9.95151C57.0707 4.58057 52.7167 0.226562 47.3457 0.226562H10.2249Z" fill="white"/>
<path d="M76.1038 31.7869L77.1555 29.3701C77.6664 29.4298 77.7265 29.4298 78.4476 29.579C75.4428 28.2662 73.3394 24.477 73.3394 20.3895C73.3394 14.2731 78.057 9.35015 83.9165 9.35015C89.776 9.35015 94.4936 14.2731 94.4936 20.4193C94.4936 26.2672 89.9863 31.2796 84.7278 31.2796C84.3672 31.2796 84.1268 31.2796 83.7362 31.22V31.3691C87.312 32.7714 89.5056 33.398 92.1498 33.8157L91.1883 37.0082C88.3637 36.6203 86.5908 35.9937 83.2254 34.2334C80.0402 32.6223 78.1772 31.9957 76.1038 31.7869ZM83.9165 12.841C80.1003 12.841 77.1856 16.0632 77.1856 20.3C77.1856 24.7754 80.0102 27.9977 83.9165 27.9977C87.7627 27.9977 90.7075 24.6859 90.7075 20.4193C90.7075 16.1229 87.7627 12.841 83.9165 12.841Z" fill="white"/>
<path d="M98.8875 30.9813H95.1014L105.799 9.11145L115.955 30.9813H112.019L110.306 27.2219H100.63L98.8875 30.9813ZM102.013 24.2085H108.984L105.528 16.3318L102.013 24.2085Z" fill="white"/>
<path d="M131.762 30.9813V21.3741L123.709 9.85735H128.097L133.746 18.2114L139.515 9.85735H143.902L135.519 21.3144V30.9813H131.762Z" fill="white"/>
<path d="M145.855 30.9813V9.11145L159.887 23.1941V9.85735H163.583V31.7869L149.551 17.6744V30.9813H145.855Z" fill="white"/>
<path d="M168.861 30.9813V9.85735H173.999C181.902 9.85735 186.74 13.8554 186.74 20.3895C186.74 24.3278 184.907 27.4905 181.481 29.4C179.438 30.5337 177.334 30.9813 173.999 30.9813H168.861ZM172.557 27.6098H174.48C179.768 27.6098 182.923 24.9246 182.923 20.4193C182.923 15.9141 179.768 13.2288 174.48 13.2288H172.557V27.6098Z" fill="white"/>
<path d="M193.826 30.9813V21.3741L185.773 9.85735H190.16L195.809 18.2114L201.578 9.85735H205.966L197.582 21.3144V30.9813H193.826Z" fill="white"/>
<path fill-rule="evenodd" clip-rule="evenodd" d="M118.065 16.1246V30.9813H121.761V16.1246H118.065ZM121.761 13.631V9.85735H118.065V13.631H121.761Z" fill="white"/>
<path d="M221.883 31.0467H208.191V28.3737L215.438 20.9785C217.2 19.2163 218.081 17.6917 218.081 16.4048C218.081 15.4148 217.784 14.6327 217.19 14.0585C216.596 13.4843 215.824 13.1972 214.873 13.1972C213.131 13.1972 211.844 14.0585 211.012 15.7811L208.132 14.0882C208.765 12.722 209.676 11.6825 210.864 10.9697C212.052 10.2371 213.379 9.87085 214.844 9.87085C216.685 9.87085 218.249 10.445 219.536 11.5934C220.843 12.7616 221.496 14.3258 221.496 16.286C221.496 18.3847 220.318 20.6419 217.962 23.0575L213.27 27.75H221.883V31.0467Z" fill="white"/>
<path d="M84.5885 42.4529V42.7372H83.06V46.7794H82.7507V42.7372H81.2222V42.4529H84.5885Z" fill="white"/>
<path d="M88.4356 42.4529L86.81 45.1539H87.829V45.3887H86.7251V46.7794H86.4158V45.3887H85.2998V45.1539H86.3309L84.7053 42.4529H85.045L86.5796 44.9993L88.1141 42.4529H88.4356Z" fill="white"/>
<path d="M90.6924 42.4529C91.7599 42.4529 92.4028 42.9968 92.4028 43.9115C92.4028 44.8201 91.7599 45.364 90.6924 45.364H89.4793V46.7794H89.1699V42.4529H90.6924ZM90.6924 45.0797C91.6022 45.0797 92.0874 44.6532 92.0874 43.9115C92.0874 43.1636 91.6022 42.7372 90.6924 42.7372H89.4793V45.0797H90.6924Z" fill="white"/>
<path d="M96.2122 42.7372H93.8952V44.6347H95.7634V44.8881H93.8952V46.7794H93.5859V44.8881H92.9308V44.6347H93.5859V42.4529H96.2122V42.7372Z" fill="white"/>
<path d="M98.7937 44.0351C99.7945 44.0351 100.328 44.4925 100.328 45.3826C100.328 46.2973 99.7581 46.7794 98.7149 46.7794H97.0894V42.4529H97.3987V44.0351H98.7937ZM101.111 46.7794V42.4529H101.42V46.7794H101.111ZM98.721 46.5136C99.5701 46.5136 100.013 46.1304 100.013 45.3887C100.013 44.6532 99.5762 44.3009 98.721 44.3009H97.3987V46.5136H98.721Z" fill="white"/>
<path d="M106.095 42.4529H106.405V46.7794H106.095V44.7212H103.257V46.7794H102.947V42.4529H103.257V44.4431H106.095V42.4529Z" fill="white"/>
<path d="M112.531 42.4529L110.821 45.2898V46.7794H110.512V45.2898L108.801 42.4529H109.141L110.675 44.9993L112.21 42.4529H112.531Z" fill="white"/>
<path d="M114.988 42.1253C114.43 42.1253 114.054 41.8471 114.042 41.3712H114.291C114.303 41.7173 114.582 41.9275 114.988 41.9275C115.389 41.9275 115.668 41.7173 115.68 41.3712H115.929C115.916 41.8471 115.54 42.1253 114.988 42.1253ZM113.266 46.7794V42.4529H113.575V46.2479L116.468 42.4529H116.741V46.7794H116.432V42.9906L113.539 46.7794H113.266Z" fill="white"/>
<path d="M122.777 46.7794L121.157 44.7274H120.138V46.7794H119.829V42.4529H120.138V44.4431H121.163L122.686 42.4529H123.031L121.406 44.5605L123.141 46.7794H122.777Z" fill="white"/>
<path d="M124.207 46.4951H126.828V46.7794H123.898V42.4529H126.737V42.7372H124.207V44.4431H126.47V44.7212H124.207V46.4951Z" fill="white"/>
<path d="M132.652 42.4529H132.962V46.7794H127.861V42.4529H128.17V46.4951H130.257V42.4529H130.566V46.4951H132.652V42.4529Z" fill="white"/>
<path d="M134.798 46.4951H137.419V46.7794H134.489V42.4529H137.328V42.7372H134.798V44.4431H137.061V44.7212H134.798V46.4951Z" fill="white"/>
<path d="M141.6 42.4529H141.909V46.7794H141.6V44.7212H138.761V46.7794H138.452V42.4529H138.761V44.4431H141.6V42.4529Z" fill="white"/>
<path d="M143.439 46.7794V42.4529H143.748V46.7794H143.439Z" fill="white"/>
<path d="M155.332 46.7794L153.931 44.7274H152.997V46.7794H152.693V44.7274H151.759L150.358 46.7794H149.988L151.504 44.5543L150.103 42.4529H150.455L151.753 44.4431H152.693V42.4529H152.997V44.4431H153.931L155.235 42.4529H155.58L154.185 44.5543L155.702 46.7794H155.332Z" fill="white"/>
<path d="M156.482 46.7794V42.4529H156.792V46.2479L159.685 42.4529H159.958V46.7794H159.648V42.9906L156.755 46.7794H156.482Z" fill="white"/>
<path d="M161.835 42.4529H164.619V46.7794H164.31V42.7372H162.114L162.059 44.3256C161.993 46.0686 161.72 46.8165 161.004 46.8165C160.907 46.8165 160.816 46.8103 160.701 46.7794L160.737 46.4889C160.816 46.5075 160.871 46.5136 160.937 46.5136C161.489 46.5136 161.714 45.8894 161.774 44.3318L161.835 42.4529Z" fill="white"/>
<path d="M167.969 46.8103C166.701 46.8103 165.761 45.8708 165.761 44.6161C165.761 43.3614 166.701 42.422 167.969 42.422C169.23 42.422 170.177 43.3553 170.177 44.6161C170.177 45.877 169.23 46.8103 167.969 46.8103ZM167.969 46.5198C169.048 46.5198 169.861 45.7101 169.861 44.6161C169.861 43.5221 169.048 42.7125 167.969 42.7125C166.883 42.7125 166.07 43.5221 166.07 44.6161C166.07 45.7101 166.883 46.5198 167.969 46.5198Z" fill="white"/>
<path d="M173.043 42.1253C172.485 42.1253 172.109 41.8471 172.096 41.3712H172.345C172.357 41.7173 172.636 41.9275 173.043 41.9275C173.443 41.9275 173.722 41.7173 173.734 41.3712H173.983C173.971 41.8471 173.595 42.1253 173.043 42.1253ZM171.32 46.7794V42.4529H171.629V46.2479L174.523 42.4529H174.796V46.7794H174.486V42.9906L171.593 46.7794H171.32Z" fill="white"/>
<path d="M180.831 46.7794L179.211 44.7274H178.192V46.7794H177.883V42.4529H178.192V44.4431H179.217L180.74 42.4529H181.086L179.46 44.5605L181.195 46.7794H180.831Z" fill="white"/>
<path d="M183.766 46.8103C182.498 46.8103 181.558 45.8708 181.558 44.6161C181.558 43.3614 182.498 42.422 183.766 42.422C185.028 42.422 185.974 43.3553 185.974 44.6161C185.974 45.877 185.028 46.8103 183.766 46.8103ZM183.766 46.5198C184.846 46.5198 185.658 45.7101 185.658 44.6161C185.658 43.5221 184.846 42.7125 183.766 42.7125C182.68 42.7125 181.868 43.5221 181.868 44.6161C181.868 45.7101 182.68 46.5198 183.766 46.5198Z" fill="white"/>
<path d="M191.436 46.7794H191.133L191.127 43.0771L189.35 46.2046H189.198L187.421 43.0895V46.7794H187.117V42.4529H187.378L189.277 45.7967L191.175 42.4529H191.43L191.436 46.7794Z" fill="white"/>
<path d="M192.964 42.4529H196.457V46.7794H196.148V42.7372H193.273V46.7794H192.964V42.4529Z" fill="white"/>
<path d="M198.334 42.4529H201.118V46.7794H200.809V42.7372H198.613L198.559 44.3256C198.492 46.0686 198.219 46.8165 197.503 46.8165C197.406 46.8165 197.315 46.8103 197.2 46.7794L197.236 46.4889C197.315 46.5075 197.37 46.5136 197.437 46.5136C197.989 46.5136 198.213 45.8894 198.274 44.3318L198.334 42.4529Z" fill="white"/>
<path d="M202.958 46.4951H205.578V46.7794H202.648V42.4529H205.487V42.7372H202.958V44.4431H205.22V44.7212H202.958V46.4951Z" fill="white"/>
<path d="M209.559 46.7794L207.939 44.7274H206.92V46.7794H206.611V42.4529H206.92V44.4431H207.945L209.468 42.4529H209.814L208.188 44.5605L209.923 46.7794H209.559Z" fill="white"/>
<path d="M212.494 46.8103C211.232 46.8103 210.292 45.877 210.292 44.6161C210.292 43.3553 211.232 42.422 212.494 42.422C213.094 42.422 213.634 42.6197 214.004 43.0215L213.81 43.2255C213.446 42.8608 213.003 42.7125 212.506 42.7125C211.42 42.7125 210.602 43.5283 210.602 44.6161C210.602 45.704 211.42 46.5198 212.506 46.5198C213.003 46.5198 213.446 46.3653 213.81 46.0006L214.004 46.2046C213.634 46.6063 213.094 46.8103 212.494 46.8103Z" fill="white"/>
<path d="M146.844 47.9168V41.4199H147.153V47.9168H146.844Z" fill="white"/>
</svg>
